<mxfile host="Electron" modified="2023-12-01T01:49:23.021Z" agent="Mozilla/5.0 (Windows NT 10.0; Win64; x64) AppleWebKit/537.36 (KHTML, like Gecko) draw.io/21.6.8 Chrome/114.0.5735.289 Electron/25.5.0 Safari/537.36" etag="94ewHnNTpY5x2gxVypGV" version="21.6.8" type="device">
  <diagram id="R2lEEEUBdFMjLlhIrx00" name="Page-1">
    <mxGraphModel dx="1290" dy="1769" grid="1" gridSize="10" guides="1" tooltips="1" connect="1" arrows="1" fold="1" page="1" pageScale="1" pageWidth="850" pageHeight="1100" math="0" shadow="0" extFonts="Permanent Marker^https://fonts.googleapis.com/css?family=Permanent+Marker">
      <root>
        <mxCell id="0" />
        <mxCell id="1" parent="0" />
        <mxCell id="yBg-bBu6KzpRyAFu0tlB-1" value="auth_group" style="shape=table;startSize=25;container=1;collapsible=1;childLayout=tableLayout;fixedRows=1;rowLines=0;fontStyle=1;align=center;resizeLast=1;html=1;fontSize=14;fontFamily=Helvetica;fillColor=#f0a30a;fontColor=#000000;strokeColor=#BD7000;swimlaneFillColor=none;gradientColor=none;fillStyle=auto;" parent="1" vertex="1">
          <mxGeometry x="40" y="-680" width="197" height="245" as="geometry">
            <mxRectangle x="2400" y="280" width="130" height="30" as="alternateBounds" />
          </mxGeometry>
        </mxCell>
        <mxCell id="yBg-bBu6KzpRyAFu0tlB-2" value="" style="shape=tableRow;horizontal=0;startSize=0;swimlaneHead=0;swimlaneBody=0;fillColor=none;collapsible=0;dropTarget=0;points=[[0,0.5],[1,0.5]];portConstraint=eastwest;top=0;left=0;right=0;bottom=1;" parent="yBg-bBu6KzpRyAFu0tlB-1" vertex="1">
          <mxGeometry y="25" width="197" height="20" as="geometry" />
        </mxCell>
        <mxCell id="yBg-bBu6KzpRyAFu0tlB-3" value="&lt;span style=&quot;font-size: 10px;&quot;&gt;PK&lt;/span&gt;" style="shape=partialRectangle;connectable=0;fillColor=none;top=0;left=0;bottom=0;right=0;fontStyle=1;overflow=hidden;whiteSpace=wrap;html=1;fontSize=10;" parent="yBg-bBu6KzpRyAFu0tlB-2" vertex="1">
          <mxGeometry width="20" height="20" as="geometry">
            <mxRectangle width="20" height="20" as="alternateBounds" />
          </mxGeometry>
        </mxCell>
        <mxCell id="yBg-bBu6KzpRyAFu0tlB-4" value="id" style="shape=partialRectangle;connectable=0;fillColor=none;top=0;left=0;bottom=0;right=0;align=left;spacingLeft=6;fontStyle=5;overflow=hidden;whiteSpace=wrap;html=1;" parent="yBg-bBu6KzpRyAFu0tlB-2" vertex="1">
          <mxGeometry x="20" width="177" height="20" as="geometry">
            <mxRectangle width="177" height="20" as="alternateBounds" />
          </mxGeometry>
        </mxCell>
        <mxCell id="yBg-bBu6KzpRyAFu0tlB-5" style="shape=tableRow;horizontal=0;startSize=0;swimlaneHead=0;swimlaneBody=0;fillColor=none;collapsible=0;dropTarget=0;points=[[0,0.5],[1,0.5]];portConstraint=eastwest;top=0;left=0;right=0;bottom=0;" parent="yBg-bBu6KzpRyAFu0tlB-1" vertex="1">
          <mxGeometry y="45" width="197" height="20" as="geometry" />
        </mxCell>
        <mxCell id="yBg-bBu6KzpRyAFu0tlB-6" value="UK" style="shape=partialRectangle;connectable=0;fillColor=none;top=0;left=0;bottom=0;right=0;editable=1;overflow=hidden;whiteSpace=wrap;html=1;fontSize=10;" parent="yBg-bBu6KzpRyAFu0tlB-5" vertex="1">
          <mxGeometry width="20" height="20" as="geometry">
            <mxRectangle width="20" height="20" as="alternateBounds" />
          </mxGeometry>
        </mxCell>
        <mxCell id="yBg-bBu6KzpRyAFu0tlB-7" value="name" style="shape=partialRectangle;connectable=0;fillColor=none;top=0;left=0;bottom=0;right=0;align=left;spacingLeft=6;overflow=hidden;whiteSpace=wrap;html=1;" parent="yBg-bBu6KzpRyAFu0tlB-5" vertex="1">
          <mxGeometry x="20" width="177" height="20" as="geometry">
            <mxRectangle width="177" height="20" as="alternateBounds" />
          </mxGeometry>
        </mxCell>
        <mxCell id="yBg-bBu6KzpRyAFu0tlB-8" style="shape=tableRow;horizontal=0;startSize=0;swimlaneHead=0;swimlaneBody=0;fillColor=none;collapsible=0;dropTarget=0;points=[[0,0.5],[1,0.5]];portConstraint=eastwest;top=0;left=0;right=0;bottom=0;" parent="yBg-bBu6KzpRyAFu0tlB-1" vertex="1">
          <mxGeometry y="65" width="197" height="20" as="geometry" />
        </mxCell>
        <mxCell id="yBg-bBu6KzpRyAFu0tlB-9" value="FK" style="shape=partialRectangle;connectable=0;fillColor=none;top=0;left=0;bottom=0;right=0;editable=1;overflow=hidden;whiteSpace=wrap;html=1;fontSize=10;" parent="yBg-bBu6KzpRyAFu0tlB-8" vertex="1">
          <mxGeometry width="20" height="20" as="geometry">
            <mxRectangle width="20" height="20" as="alternateBounds" />
          </mxGeometry>
        </mxCell>
        <mxCell id="yBg-bBu6KzpRyAFu0tlB-10" value="resource_id" style="shape=partialRectangle;connectable=0;fillColor=none;top=0;left=0;bottom=0;right=0;align=left;spacingLeft=6;overflow=hidden;whiteSpace=wrap;html=1;" parent="yBg-bBu6KzpRyAFu0tlB-8" vertex="1">
          <mxGeometry x="20" width="177" height="20" as="geometry">
            <mxRectangle width="177" height="20" as="alternateBounds" />
          </mxGeometry>
        </mxCell>
        <mxCell id="yBg-bBu6KzpRyAFu0tlB-11" style="shape=tableRow;horizontal=0;startSize=0;swimlaneHead=0;swimlaneBody=0;fillColor=none;collapsible=0;dropTarget=0;points=[[0,0.5],[1,0.5]];portConstraint=eastwest;top=0;left=0;right=0;bottom=0;" parent="yBg-bBu6KzpRyAFu0tlB-1" vertex="1">
          <mxGeometry y="85" width="197" height="20" as="geometry" />
        </mxCell>
        <mxCell id="yBg-bBu6KzpRyAFu0tlB-12" value="FK" style="shape=partialRectangle;connectable=0;fillColor=none;top=0;left=0;bottom=0;right=0;editable=1;overflow=hidden;whiteSpace=wrap;html=1;fontSize=10;" parent="yBg-bBu6KzpRyAFu0tlB-11" vertex="1">
          <mxGeometry width="20" height="20" as="geometry">
            <mxRectangle width="20" height="20" as="alternateBounds" />
          </mxGeometry>
        </mxCell>
        <mxCell id="yBg-bBu6KzpRyAFu0tlB-13" value="measurement_unit_id" style="shape=partialRectangle;connectable=0;fillColor=none;top=0;left=0;bottom=0;right=0;align=left;spacingLeft=6;overflow=hidden;whiteSpace=wrap;html=1;" parent="yBg-bBu6KzpRyAFu0tlB-11" vertex="1">
          <mxGeometry x="20" width="177" height="20" as="geometry">
            <mxRectangle width="177" height="20" as="alternateBounds" />
          </mxGeometry>
        </mxCell>
        <mxCell id="yBg-bBu6KzpRyAFu0tlB-14" style="shape=tableRow;horizontal=0;startSize=0;swimlaneHead=0;swimlaneBody=0;fillColor=none;collapsible=0;dropTarget=0;points=[[0,0.5],[1,0.5]];portConstraint=eastwest;top=0;left=0;right=0;bottom=0;" parent="yBg-bBu6KzpRyAFu0tlB-1" vertex="1">
          <mxGeometry y="105" width="197" height="20" as="geometry" />
        </mxCell>
        <mxCell id="yBg-bBu6KzpRyAFu0tlB-15" style="shape=partialRectangle;connectable=0;fillColor=none;top=0;left=0;bottom=0;right=0;editable=1;overflow=hidden;whiteSpace=wrap;html=1;fontSize=10;" parent="yBg-bBu6KzpRyAFu0tlB-14" vertex="1">
          <mxGeometry width="20" height="20" as="geometry">
            <mxRectangle width="20" height="20" as="alternateBounds" />
          </mxGeometry>
        </mxCell>
        <mxCell id="yBg-bBu6KzpRyAFu0tlB-16" value="aspect_type" style="shape=partialRectangle;connectable=0;fillColor=none;top=0;left=0;bottom=0;right=0;align=left;spacingLeft=6;overflow=hidden;whiteSpace=wrap;html=1;" parent="yBg-bBu6KzpRyAFu0tlB-14" vertex="1">
          <mxGeometry x="20" width="177" height="20" as="geometry">
            <mxRectangle width="177" height="20" as="alternateBounds" />
          </mxGeometry>
        </mxCell>
        <mxCell id="yBg-bBu6KzpRyAFu0tlB-17" style="shape=tableRow;horizontal=0;startSize=0;swimlaneHead=0;swimlaneBody=0;fillColor=none;collapsible=0;dropTarget=0;points=[[0,0.5],[1,0.5]];portConstraint=eastwest;top=0;left=0;right=0;bottom=0;" parent="yBg-bBu6KzpRyAFu0tlB-1" vertex="1">
          <mxGeometry y="125" width="197" height="20" as="geometry" />
        </mxCell>
        <mxCell id="yBg-bBu6KzpRyAFu0tlB-18" style="shape=partialRectangle;connectable=0;fillColor=none;top=0;left=0;bottom=0;right=0;editable=1;overflow=hidden;whiteSpace=wrap;html=1;fontSize=10;" parent="yBg-bBu6KzpRyAFu0tlB-17" vertex="1">
          <mxGeometry width="20" height="20" as="geometry">
            <mxRectangle width="20" height="20" as="alternateBounds" />
          </mxGeometry>
        </mxCell>
        <mxCell id="yBg-bBu6KzpRyAFu0tlB-19" value="conversion_factor" style="shape=partialRectangle;connectable=0;fillColor=none;top=0;left=0;bottom=0;right=0;align=left;spacingLeft=6;overflow=hidden;whiteSpace=wrap;html=1;" parent="yBg-bBu6KzpRyAFu0tlB-17" vertex="1">
          <mxGeometry x="20" width="177" height="20" as="geometry">
            <mxRectangle width="177" height="20" as="alternateBounds" />
          </mxGeometry>
        </mxCell>
        <mxCell id="yBg-bBu6KzpRyAFu0tlB-20" style="shape=tableRow;horizontal=0;startSize=0;swimlaneHead=0;swimlaneBody=0;fillColor=none;collapsible=0;dropTarget=0;points=[[0,0.5],[1,0.5]];portConstraint=eastwest;top=0;left=0;right=0;bottom=0;" parent="yBg-bBu6KzpRyAFu0tlB-1" vertex="1">
          <mxGeometry y="145" width="197" height="20" as="geometry" />
        </mxCell>
        <mxCell id="yBg-bBu6KzpRyAFu0tlB-21" style="shape=partialRectangle;connectable=0;fillColor=none;top=0;left=0;bottom=0;right=0;editable=1;overflow=hidden;whiteSpace=wrap;html=1;fontSize=10;" parent="yBg-bBu6KzpRyAFu0tlB-20" vertex="1">
          <mxGeometry width="20" height="20" as="geometry">
            <mxRectangle width="20" height="20" as="alternateBounds" />
          </mxGeometry>
        </mxCell>
        <mxCell id="yBg-bBu6KzpRyAFu0tlB-22" value="personal" style="shape=partialRectangle;connectable=0;fillColor=none;top=0;left=0;bottom=0;right=0;align=left;spacingLeft=6;overflow=hidden;whiteSpace=wrap;html=1;" parent="yBg-bBu6KzpRyAFu0tlB-20" vertex="1">
          <mxGeometry x="20" width="177" height="20" as="geometry">
            <mxRectangle width="177" height="20" as="alternateBounds" />
          </mxGeometry>
        </mxCell>
        <mxCell id="yBg-bBu6KzpRyAFu0tlB-23" style="shape=tableRow;horizontal=0;startSize=0;swimlaneHead=0;swimlaneBody=0;fillColor=none;collapsible=0;dropTarget=0;points=[[0,0.5],[1,0.5]];portConstraint=eastwest;top=0;left=0;right=0;bottom=0;" parent="yBg-bBu6KzpRyAFu0tlB-1" vertex="1">
          <mxGeometry y="165" width="197" height="20" as="geometry" />
        </mxCell>
        <mxCell id="yBg-bBu6KzpRyAFu0tlB-24" style="shape=partialRectangle;connectable=0;fillColor=none;top=0;left=0;bottom=0;right=0;editable=1;overflow=hidden;whiteSpace=wrap;html=1;fontSize=10;" parent="yBg-bBu6KzpRyAFu0tlB-23" vertex="1">
          <mxGeometry width="20" height="20" as="geometry">
            <mxRectangle width="20" height="20" as="alternateBounds" />
          </mxGeometry>
        </mxCell>
        <mxCell id="yBg-bBu6KzpRyAFu0tlB-25" value="state" style="shape=partialRectangle;connectable=0;fillColor=none;top=0;left=0;bottom=0;right=0;align=left;spacingLeft=6;overflow=hidden;whiteSpace=wrap;html=1;" parent="yBg-bBu6KzpRyAFu0tlB-23" vertex="1">
          <mxGeometry x="20" width="177" height="20" as="geometry">
            <mxRectangle width="177" height="20" as="alternateBounds" />
          </mxGeometry>
        </mxCell>
        <mxCell id="yBg-bBu6KzpRyAFu0tlB-26" value="" style="shape=tableRow;horizontal=0;startSize=0;swimlaneHead=0;swimlaneBody=0;fillColor=none;collapsible=0;dropTarget=0;points=[[0,0.5],[1,0.5]];portConstraint=eastwest;top=0;left=0;right=0;bottom=0;" parent="yBg-bBu6KzpRyAFu0tlB-1" vertex="1">
          <mxGeometry y="185" width="197" height="20" as="geometry" />
        </mxCell>
        <mxCell id="yBg-bBu6KzpRyAFu0tlB-27" value="" style="shape=partialRectangle;connectable=0;fillColor=none;top=0;left=0;bottom=0;right=0;editable=1;overflow=hidden;whiteSpace=wrap;html=1;fontSize=10;" parent="yBg-bBu6KzpRyAFu0tlB-26" vertex="1">
          <mxGeometry width="20" height="20" as="geometry">
            <mxRectangle width="20" height="20" as="alternateBounds" />
          </mxGeometry>
        </mxCell>
        <mxCell id="yBg-bBu6KzpRyAFu0tlB-28" value="deleted_at" style="shape=partialRectangle;connectable=0;fillColor=none;top=0;left=0;bottom=0;right=0;align=left;spacingLeft=6;overflow=hidden;whiteSpace=wrap;html=1;" parent="yBg-bBu6KzpRyAFu0tlB-26" vertex="1">
          <mxGeometry x="20" width="177" height="20" as="geometry">
            <mxRectangle width="177" height="20" as="alternateBounds" />
          </mxGeometry>
        </mxCell>
        <mxCell id="yBg-bBu6KzpRyAFu0tlB-29" value="" style="shape=tableRow;horizontal=0;startSize=0;swimlaneHead=0;swimlaneBody=0;fillColor=none;collapsible=0;dropTarget=0;points=[[0,0.5],[1,0.5]];portConstraint=eastwest;top=0;left=0;right=0;bottom=0;" parent="yBg-bBu6KzpRyAFu0tlB-1" vertex="1">
          <mxGeometry y="205" width="197" height="20" as="geometry" />
        </mxCell>
        <mxCell id="yBg-bBu6KzpRyAFu0tlB-30" value="" style="shape=partialRectangle;connectable=0;fillColor=none;top=0;left=0;bottom=0;right=0;editable=1;overflow=hidden;whiteSpace=wrap;html=1;fontSize=10;" parent="yBg-bBu6KzpRyAFu0tlB-29" vertex="1">
          <mxGeometry width="20" height="20" as="geometry">
            <mxRectangle width="20" height="20" as="alternateBounds" />
          </mxGeometry>
        </mxCell>
        <mxCell id="yBg-bBu6KzpRyAFu0tlB-31" value="created_at" style="shape=partialRectangle;connectable=0;fillColor=none;top=0;left=0;bottom=0;right=0;align=left;spacingLeft=6;overflow=hidden;whiteSpace=wrap;html=1;" parent="yBg-bBu6KzpRyAFu0tlB-29" vertex="1">
          <mxGeometry x="20" width="177" height="20" as="geometry">
            <mxRectangle width="177" height="20" as="alternateBounds" />
          </mxGeometry>
        </mxCell>
        <mxCell id="yBg-bBu6KzpRyAFu0tlB-32" value="" style="shape=tableRow;horizontal=0;startSize=0;swimlaneHead=0;swimlaneBody=0;fillColor=none;collapsible=0;dropTarget=0;points=[[0,0.5],[1,0.5]];portConstraint=eastwest;top=0;left=0;right=0;bottom=0;" parent="yBg-bBu6KzpRyAFu0tlB-1" vertex="1">
          <mxGeometry y="225" width="197" height="20" as="geometry" />
        </mxCell>
        <mxCell id="yBg-bBu6KzpRyAFu0tlB-33" value="" style="shape=partialRectangle;connectable=0;fillColor=none;top=0;left=0;bottom=0;right=0;editable=1;overflow=hidden;whiteSpace=wrap;html=1;fontSize=10;" parent="yBg-bBu6KzpRyAFu0tlB-32" vertex="1">
          <mxGeometry width="20" height="20" as="geometry">
            <mxRectangle width="20" height="20" as="alternateBounds" />
          </mxGeometry>
        </mxCell>
        <mxCell id="yBg-bBu6KzpRyAFu0tlB-34" value="updated_at" style="shape=partialRectangle;connectable=0;fillColor=none;top=0;left=0;bottom=0;right=0;align=left;spacingLeft=6;overflow=hidden;whiteSpace=wrap;html=1;" parent="yBg-bBu6KzpRyAFu0tlB-32" vertex="1">
          <mxGeometry x="20" width="177" height="20" as="geometry">
            <mxRectangle width="177" height="20" as="alternateBounds" />
          </mxGeometry>
        </mxCell>
        <mxCell id="Wjssdmnb7hO1VKRgGX_h-1" value="villabetel_userprofilegroup" style="shape=table;startSize=25;container=1;collapsible=1;childLayout=tableLayout;fixedRows=1;rowLines=0;fontStyle=1;align=center;resizeLast=1;html=1;fontSize=14;fontFamily=Helvetica;fillColor=#f0a30a;fontColor=#000000;strokeColor=#BD7000;swimlaneFillColor=none;gradientColor=none;fillStyle=auto;" parent="1" vertex="1">
          <mxGeometry x="310" y="-640" width="197" height="100" as="geometry">
            <mxRectangle x="2400" y="280" width="130" height="30" as="alternateBounds" />
          </mxGeometry>
        </mxCell>
        <mxCell id="Wjssdmnb7hO1VKRgGX_h-2" value="" style="shape=tableRow;horizontal=0;startSize=0;swimlaneHead=0;swimlaneBody=0;fillColor=none;collapsible=0;dropTarget=0;points=[[0,0.5],[1,0.5]];portConstraint=eastwest;top=0;left=0;right=0;bottom=1;" parent="Wjssdmnb7hO1VKRgGX_h-1" vertex="1">
          <mxGeometry y="25" width="197" height="20" as="geometry" />
        </mxCell>
        <mxCell id="Wjssdmnb7hO1VKRgGX_h-3" value="&lt;span style=&quot;font-size: 10px;&quot;&gt;PK&lt;/span&gt;" style="shape=partialRectangle;connectable=0;fillColor=none;top=0;left=0;bottom=0;right=0;fontStyle=1;overflow=hidden;whiteSpace=wrap;html=1;fontSize=10;" parent="Wjssdmnb7hO1VKRgGX_h-2" vertex="1">
          <mxGeometry width="20" height="20" as="geometry">
            <mxRectangle width="20" height="20" as="alternateBounds" />
          </mxGeometry>
        </mxCell>
        <mxCell id="Wjssdmnb7hO1VKRgGX_h-4" value="id" style="shape=partialRectangle;connectable=0;fillColor=none;top=0;left=0;bottom=0;right=0;align=left;spacingLeft=6;fontStyle=5;overflow=hidden;whiteSpace=wrap;html=1;" parent="Wjssdmnb7hO1VKRgGX_h-2" vertex="1">
          <mxGeometry x="20" width="177" height="20" as="geometry">
            <mxRectangle width="177" height="20" as="alternateBounds" />
          </mxGeometry>
        </mxCell>
        <mxCell id="Wjssdmnb7hO1VKRgGX_h-8" style="shape=tableRow;horizontal=0;startSize=0;swimlaneHead=0;swimlaneBody=0;fillColor=none;collapsible=0;dropTarget=0;points=[[0,0.5],[1,0.5]];portConstraint=eastwest;top=0;left=0;right=0;bottom=0;" parent="Wjssdmnb7hO1VKRgGX_h-1" vertex="1">
          <mxGeometry y="45" width="197" height="20" as="geometry" />
        </mxCell>
        <mxCell id="Wjssdmnb7hO1VKRgGX_h-9" value="FK" style="shape=partialRectangle;connectable=0;fillColor=none;top=0;left=0;bottom=0;right=0;editable=1;overflow=hidden;whiteSpace=wrap;html=1;fontSize=10;" parent="Wjssdmnb7hO1VKRgGX_h-8" vertex="1">
          <mxGeometry width="20" height="20" as="geometry">
            <mxRectangle width="20" height="20" as="alternateBounds" />
          </mxGeometry>
        </mxCell>
        <mxCell id="Wjssdmnb7hO1VKRgGX_h-10" value="group_id" style="shape=partialRectangle;connectable=0;fillColor=none;top=0;left=0;bottom=0;right=0;align=left;spacingLeft=6;overflow=hidden;whiteSpace=wrap;html=1;" parent="Wjssdmnb7hO1VKRgGX_h-8" vertex="1">
          <mxGeometry x="20" width="177" height="20" as="geometry">
            <mxRectangle width="177" height="20" as="alternateBounds" />
          </mxGeometry>
        </mxCell>
        <mxCell id="Wjssdmnb7hO1VKRgGX_h-11" style="shape=tableRow;horizontal=0;startSize=0;swimlaneHead=0;swimlaneBody=0;fillColor=none;collapsible=0;dropTarget=0;points=[[0,0.5],[1,0.5]];portConstraint=eastwest;top=0;left=0;right=0;bottom=0;" parent="Wjssdmnb7hO1VKRgGX_h-1" vertex="1">
          <mxGeometry y="65" width="197" height="25" as="geometry" />
        </mxCell>
        <mxCell id="Wjssdmnb7hO1VKRgGX_h-12" value="FK" style="shape=partialRectangle;connectable=0;fillColor=none;top=0;left=0;bottom=0;right=0;editable=1;overflow=hidden;whiteSpace=wrap;html=1;fontSize=10;" parent="Wjssdmnb7hO1VKRgGX_h-11" vertex="1">
          <mxGeometry width="20" height="25" as="geometry">
            <mxRectangle width="20" height="25" as="alternateBounds" />
          </mxGeometry>
        </mxCell>
        <mxCell id="Wjssdmnb7hO1VKRgGX_h-13" value="user_id" style="shape=partialRectangle;connectable=0;fillColor=none;top=0;left=0;bottom=0;right=0;align=left;spacingLeft=6;overflow=hidden;whiteSpace=wrap;html=1;" parent="Wjssdmnb7hO1VKRgGX_h-11" vertex="1">
          <mxGeometry x="20" width="177" height="25" as="geometry">
            <mxRectangle width="177" height="25" as="alternateBounds" />
          </mxGeometry>
        </mxCell>
        <mxCell id="Wjssdmnb7hO1VKRgGX_h-35" value="villabetel_product" style="shape=table;startSize=25;container=1;collapsible=1;childLayout=tableLayout;fixedRows=1;rowLines=0;fontStyle=1;align=center;resizeLast=1;html=1;fontSize=14;fontFamily=Helvetica;fillColor=#f0a30a;fontColor=#000000;strokeColor=#BD7000;swimlaneFillColor=none;gradientColor=none;fillStyle=auto;" parent="1" vertex="1">
          <mxGeometry x="190" y="-370" width="197" height="165" as="geometry">
            <mxRectangle x="2400" y="280" width="130" height="30" as="alternateBounds" />
          </mxGeometry>
        </mxCell>
        <mxCell id="Wjssdmnb7hO1VKRgGX_h-36" value="" style="shape=tableRow;horizontal=0;startSize=0;swimlaneHead=0;swimlaneBody=0;fillColor=none;collapsible=0;dropTarget=0;points=[[0,0.5],[1,0.5]];portConstraint=eastwest;top=0;left=0;right=0;bottom=1;" parent="Wjssdmnb7hO1VKRgGX_h-35" vertex="1">
          <mxGeometry y="25" width="197" height="20" as="geometry" />
        </mxCell>
        <mxCell id="Wjssdmnb7hO1VKRgGX_h-37" value="&lt;span style=&quot;font-size: 10px;&quot;&gt;PK&lt;/span&gt;" style="shape=partialRectangle;connectable=0;fillColor=none;top=0;left=0;bottom=0;right=0;fontStyle=1;overflow=hidden;whiteSpace=wrap;html=1;fontSize=10;" parent="Wjssdmnb7hO1VKRgGX_h-36" vertex="1">
          <mxGeometry width="20" height="20" as="geometry">
            <mxRectangle width="20" height="20" as="alternateBounds" />
          </mxGeometry>
        </mxCell>
        <mxCell id="Wjssdmnb7hO1VKRgGX_h-38" value="id" style="shape=partialRectangle;connectable=0;fillColor=none;top=0;left=0;bottom=0;right=0;align=left;spacingLeft=6;fontStyle=5;overflow=hidden;whiteSpace=wrap;html=1;" parent="Wjssdmnb7hO1VKRgGX_h-36" vertex="1">
          <mxGeometry x="20" width="177" height="20" as="geometry">
            <mxRectangle width="177" height="20" as="alternateBounds" />
          </mxGeometry>
        </mxCell>
        <mxCell id="Wjssdmnb7hO1VKRgGX_h-39" style="shape=tableRow;horizontal=0;startSize=0;swimlaneHead=0;swimlaneBody=0;fillColor=none;collapsible=0;dropTarget=0;points=[[0,0.5],[1,0.5]];portConstraint=eastwest;top=0;left=0;right=0;bottom=0;" parent="Wjssdmnb7hO1VKRgGX_h-35" vertex="1">
          <mxGeometry y="45" width="197" height="20" as="geometry" />
        </mxCell>
        <mxCell id="Wjssdmnb7hO1VKRgGX_h-40" value="FK" style="shape=partialRectangle;connectable=0;fillColor=none;top=0;left=0;bottom=0;right=0;editable=1;overflow=hidden;whiteSpace=wrap;html=1;fontSize=10;" parent="Wjssdmnb7hO1VKRgGX_h-39" vertex="1">
          <mxGeometry width="20" height="20" as="geometry">
            <mxRectangle width="20" height="20" as="alternateBounds" />
          </mxGeometry>
        </mxCell>
        <mxCell id="Wjssdmnb7hO1VKRgGX_h-41" value="category_id" style="shape=partialRectangle;connectable=0;fillColor=none;top=0;left=0;bottom=0;right=0;align=left;spacingLeft=6;overflow=hidden;whiteSpace=wrap;html=1;" parent="Wjssdmnb7hO1VKRgGX_h-39" vertex="1">
          <mxGeometry x="20" width="177" height="20" as="geometry">
            <mxRectangle width="177" height="20" as="alternateBounds" />
          </mxGeometry>
        </mxCell>
        <mxCell id="Wjssdmnb7hO1VKRgGX_h-48" style="shape=tableRow;horizontal=0;startSize=0;swimlaneHead=0;swimlaneBody=0;fillColor=none;collapsible=0;dropTarget=0;points=[[0,0.5],[1,0.5]];portConstraint=eastwest;top=0;left=0;right=0;bottom=0;" parent="Wjssdmnb7hO1VKRgGX_h-35" vertex="1">
          <mxGeometry y="65" width="197" height="20" as="geometry" />
        </mxCell>
        <mxCell id="Wjssdmnb7hO1VKRgGX_h-49" style="shape=partialRectangle;connectable=0;fillColor=none;top=0;left=0;bottom=0;right=0;editable=1;overflow=hidden;whiteSpace=wrap;html=1;fontSize=10;" parent="Wjssdmnb7hO1VKRgGX_h-48" vertex="1">
          <mxGeometry width="20" height="20" as="geometry">
            <mxRectangle width="20" height="20" as="alternateBounds" />
          </mxGeometry>
        </mxCell>
        <mxCell id="Wjssdmnb7hO1VKRgGX_h-50" value="name" style="shape=partialRectangle;connectable=0;fillColor=none;top=0;left=0;bottom=0;right=0;align=left;spacingLeft=6;overflow=hidden;whiteSpace=wrap;html=1;" parent="Wjssdmnb7hO1VKRgGX_h-48" vertex="1">
          <mxGeometry x="20" width="177" height="20" as="geometry">
            <mxRectangle width="177" height="20" as="alternateBounds" />
          </mxGeometry>
        </mxCell>
        <mxCell id="Wjssdmnb7hO1VKRgGX_h-51" style="shape=tableRow;horizontal=0;startSize=0;swimlaneHead=0;swimlaneBody=0;fillColor=none;collapsible=0;dropTarget=0;points=[[0,0.5],[1,0.5]];portConstraint=eastwest;top=0;left=0;right=0;bottom=0;" parent="Wjssdmnb7hO1VKRgGX_h-35" vertex="1">
          <mxGeometry y="85" width="197" height="20" as="geometry" />
        </mxCell>
        <mxCell id="Wjssdmnb7hO1VKRgGX_h-52" style="shape=partialRectangle;connectable=0;fillColor=none;top=0;left=0;bottom=0;right=0;editable=1;overflow=hidden;whiteSpace=wrap;html=1;fontSize=10;" parent="Wjssdmnb7hO1VKRgGX_h-51" vertex="1">
          <mxGeometry width="20" height="20" as="geometry">
            <mxRectangle width="20" height="20" as="alternateBounds" />
          </mxGeometry>
        </mxCell>
        <mxCell id="Wjssdmnb7hO1VKRgGX_h-53" value="description" style="shape=partialRectangle;connectable=0;fillColor=none;top=0;left=0;bottom=0;right=0;align=left;spacingLeft=6;overflow=hidden;whiteSpace=wrap;html=1;" parent="Wjssdmnb7hO1VKRgGX_h-51" vertex="1">
          <mxGeometry x="20" width="177" height="20" as="geometry">
            <mxRectangle width="177" height="20" as="alternateBounds" />
          </mxGeometry>
        </mxCell>
        <mxCell id="Wjssdmnb7hO1VKRgGX_h-54" style="shape=tableRow;horizontal=0;startSize=0;swimlaneHead=0;swimlaneBody=0;fillColor=none;collapsible=0;dropTarget=0;points=[[0,0.5],[1,0.5]];portConstraint=eastwest;top=0;left=0;right=0;bottom=0;" parent="Wjssdmnb7hO1VKRgGX_h-35" vertex="1">
          <mxGeometry y="105" width="197" height="20" as="geometry" />
        </mxCell>
        <mxCell id="Wjssdmnb7hO1VKRgGX_h-55" style="shape=partialRectangle;connectable=0;fillColor=none;top=0;left=0;bottom=0;right=0;editable=1;overflow=hidden;whiteSpace=wrap;html=1;fontSize=10;" parent="Wjssdmnb7hO1VKRgGX_h-54" vertex="1">
          <mxGeometry width="20" height="20" as="geometry">
            <mxRectangle width="20" height="20" as="alternateBounds" />
          </mxGeometry>
        </mxCell>
        <mxCell id="Wjssdmnb7hO1VKRgGX_h-56" value="price" style="shape=partialRectangle;connectable=0;fillColor=none;top=0;left=0;bottom=0;right=0;align=left;spacingLeft=6;overflow=hidden;whiteSpace=wrap;html=1;" parent="Wjssdmnb7hO1VKRgGX_h-54" vertex="1">
          <mxGeometry x="20" width="177" height="20" as="geometry">
            <mxRectangle width="177" height="20" as="alternateBounds" />
          </mxGeometry>
        </mxCell>
        <mxCell id="Wjssdmnb7hO1VKRgGX_h-60" value="" style="shape=tableRow;horizontal=0;startSize=0;swimlaneHead=0;swimlaneBody=0;fillColor=none;collapsible=0;dropTarget=0;points=[[0,0.5],[1,0.5]];portConstraint=eastwest;top=0;left=0;right=0;bottom=0;" parent="Wjssdmnb7hO1VKRgGX_h-35" vertex="1">
          <mxGeometry y="125" width="197" height="20" as="geometry" />
        </mxCell>
        <mxCell id="Wjssdmnb7hO1VKRgGX_h-61" value="" style="shape=partialRectangle;connectable=0;fillColor=none;top=0;left=0;bottom=0;right=0;editable=1;overflow=hidden;whiteSpace=wrap;html=1;fontSize=10;" parent="Wjssdmnb7hO1VKRgGX_h-60" vertex="1">
          <mxGeometry width="20" height="20" as="geometry">
            <mxRectangle width="20" height="20" as="alternateBounds" />
          </mxGeometry>
        </mxCell>
        <mxCell id="Wjssdmnb7hO1VKRgGX_h-62" value="" style="shape=partialRectangle;connectable=0;fillColor=none;top=0;left=0;bottom=0;right=0;align=left;spacingLeft=6;overflow=hidden;whiteSpace=wrap;html=1;" parent="Wjssdmnb7hO1VKRgGX_h-60" vertex="1">
          <mxGeometry x="20" width="177" height="20" as="geometry">
            <mxRectangle width="177" height="20" as="alternateBounds" />
          </mxGeometry>
        </mxCell>
        <mxCell id="Wjssdmnb7hO1VKRgGX_h-66" value="" style="shape=tableRow;horizontal=0;startSize=0;swimlaneHead=0;swimlaneBody=0;fillColor=none;collapsible=0;dropTarget=0;points=[[0,0.5],[1,0.5]];portConstraint=eastwest;top=0;left=0;right=0;bottom=0;" parent="Wjssdmnb7hO1VKRgGX_h-35" vertex="1">
          <mxGeometry y="145" width="197" height="20" as="geometry" />
        </mxCell>
        <mxCell id="Wjssdmnb7hO1VKRgGX_h-67" value="" style="shape=partialRectangle;connectable=0;fillColor=none;top=0;left=0;bottom=0;right=0;editable=1;overflow=hidden;whiteSpace=wrap;html=1;fontSize=10;" parent="Wjssdmnb7hO1VKRgGX_h-66" vertex="1">
          <mxGeometry width="20" height="20" as="geometry">
            <mxRectangle width="20" height="20" as="alternateBounds" />
          </mxGeometry>
        </mxCell>
        <mxCell id="Wjssdmnb7hO1VKRgGX_h-68" value="" style="shape=partialRectangle;connectable=0;fillColor=none;top=0;left=0;bottom=0;right=0;align=left;spacingLeft=6;overflow=hidden;whiteSpace=wrap;html=1;" parent="Wjssdmnb7hO1VKRgGX_h-66" vertex="1">
          <mxGeometry x="20" width="177" height="20" as="geometry">
            <mxRectangle width="177" height="20" as="alternateBounds" />
          </mxGeometry>
        </mxCell>
        <mxCell id="Wjssdmnb7hO1VKRgGX_h-69" value="villabetel_waiter" style="shape=table;startSize=25;container=1;collapsible=1;childLayout=tableLayout;fixedRows=1;rowLines=0;fontStyle=1;align=center;resizeLast=1;html=1;fontSize=14;fontFamily=Helvetica;fillColor=#f0a30a;fontColor=#000000;strokeColor=#BD7000;swimlaneFillColor=none;gradientColor=none;fillStyle=auto;" parent="1" vertex="1">
          <mxGeometry x="307" y="-516" width="197" height="125" as="geometry">
            <mxRectangle x="2400" y="280" width="130" height="30" as="alternateBounds" />
          </mxGeometry>
        </mxCell>
        <mxCell id="Wjssdmnb7hO1VKRgGX_h-70" value="" style="shape=tableRow;horizontal=0;startSize=0;swimlaneHead=0;swimlaneBody=0;fillColor=none;collapsible=0;dropTarget=0;points=[[0,0.5],[1,0.5]];portConstraint=eastwest;top=0;left=0;right=0;bottom=1;" parent="Wjssdmnb7hO1VKRgGX_h-69" vertex="1">
          <mxGeometry y="25" width="197" height="20" as="geometry" />
        </mxCell>
        <mxCell id="Wjssdmnb7hO1VKRgGX_h-71" value="&lt;span style=&quot;font-size: 10px;&quot;&gt;PK&lt;/span&gt;" style="shape=partialRectangle;connectable=0;fillColor=none;top=0;left=0;bottom=0;right=0;fontStyle=1;overflow=hidden;whiteSpace=wrap;html=1;fontSize=10;" parent="Wjssdmnb7hO1VKRgGX_h-70" vertex="1">
          <mxGeometry width="20" height="20" as="geometry">
            <mxRectangle width="20" height="20" as="alternateBounds" />
          </mxGeometry>
        </mxCell>
        <mxCell id="Wjssdmnb7hO1VKRgGX_h-72" value="id" style="shape=partialRectangle;connectable=0;fillColor=none;top=0;left=0;bottom=0;right=0;align=left;spacingLeft=6;fontStyle=5;overflow=hidden;whiteSpace=wrap;html=1;" parent="Wjssdmnb7hO1VKRgGX_h-70" vertex="1">
          <mxGeometry x="20" width="177" height="20" as="geometry">
            <mxRectangle width="177" height="20" as="alternateBounds" />
          </mxGeometry>
        </mxCell>
        <mxCell id="Wjssdmnb7hO1VKRgGX_h-79" style="shape=tableRow;horizontal=0;startSize=0;swimlaneHead=0;swimlaneBody=0;fillColor=none;collapsible=0;dropTarget=0;points=[[0,0.5],[1,0.5]];portConstraint=eastwest;top=0;left=0;right=0;bottom=0;" parent="Wjssdmnb7hO1VKRgGX_h-69" vertex="1">
          <mxGeometry y="45" width="197" height="20" as="geometry" />
        </mxCell>
        <mxCell id="Wjssdmnb7hO1VKRgGX_h-80" value="FK" style="shape=partialRectangle;connectable=0;fillColor=none;top=0;left=0;bottom=0;right=0;editable=1;overflow=hidden;whiteSpace=wrap;html=1;fontSize=10;" parent="Wjssdmnb7hO1VKRgGX_h-79" vertex="1">
          <mxGeometry width="20" height="20" as="geometry">
            <mxRectangle width="20" height="20" as="alternateBounds" />
          </mxGeometry>
        </mxCell>
        <mxCell id="Wjssdmnb7hO1VKRgGX_h-81" value="user_profile_id" style="shape=partialRectangle;connectable=0;fillColor=none;top=0;left=0;bottom=0;right=0;align=left;spacingLeft=6;overflow=hidden;whiteSpace=wrap;html=1;" parent="Wjssdmnb7hO1VKRgGX_h-79" vertex="1">
          <mxGeometry x="20" width="177" height="20" as="geometry">
            <mxRectangle width="177" height="20" as="alternateBounds" />
          </mxGeometry>
        </mxCell>
        <mxCell id="Wjssdmnb7hO1VKRgGX_h-82" style="shape=tableRow;horizontal=0;startSize=0;swimlaneHead=0;swimlaneBody=0;fillColor=none;collapsible=0;dropTarget=0;points=[[0,0.5],[1,0.5]];portConstraint=eastwest;top=0;left=0;right=0;bottom=0;" parent="Wjssdmnb7hO1VKRgGX_h-69" vertex="1">
          <mxGeometry y="65" width="197" height="20" as="geometry" />
        </mxCell>
        <mxCell id="Wjssdmnb7hO1VKRgGX_h-83" style="shape=partialRectangle;connectable=0;fillColor=none;top=0;left=0;bottom=0;right=0;editable=1;overflow=hidden;whiteSpace=wrap;html=1;fontSize=10;" parent="Wjssdmnb7hO1VKRgGX_h-82" vertex="1">
          <mxGeometry width="20" height="20" as="geometry">
            <mxRectangle width="20" height="20" as="alternateBounds" />
          </mxGeometry>
        </mxCell>
        <mxCell id="Wjssdmnb7hO1VKRgGX_h-84" value="nickname" style="shape=partialRectangle;connectable=0;fillColor=none;top=0;left=0;bottom=0;right=0;align=left;spacingLeft=6;overflow=hidden;whiteSpace=wrap;html=1;" parent="Wjssdmnb7hO1VKRgGX_h-82" vertex="1">
          <mxGeometry x="20" width="177" height="20" as="geometry">
            <mxRectangle width="177" height="20" as="alternateBounds" />
          </mxGeometry>
        </mxCell>
        <mxCell id="Wjssdmnb7hO1VKRgGX_h-85" style="shape=tableRow;horizontal=0;startSize=0;swimlaneHead=0;swimlaneBody=0;fillColor=none;collapsible=0;dropTarget=0;points=[[0,0.5],[1,0.5]];portConstraint=eastwest;top=0;left=0;right=0;bottom=0;" parent="Wjssdmnb7hO1VKRgGX_h-69" vertex="1">
          <mxGeometry y="85" width="197" height="20" as="geometry" />
        </mxCell>
        <mxCell id="Wjssdmnb7hO1VKRgGX_h-86" style="shape=partialRectangle;connectable=0;fillColor=none;top=0;left=0;bottom=0;right=0;editable=1;overflow=hidden;whiteSpace=wrap;html=1;fontSize=10;" parent="Wjssdmnb7hO1VKRgGX_h-85" vertex="1">
          <mxGeometry width="20" height="20" as="geometry">
            <mxRectangle width="20" height="20" as="alternateBounds" />
          </mxGeometry>
        </mxCell>
        <mxCell id="Wjssdmnb7hO1VKRgGX_h-87" value="" style="shape=partialRectangle;connectable=0;fillColor=none;top=0;left=0;bottom=0;right=0;align=left;spacingLeft=6;overflow=hidden;whiteSpace=wrap;html=1;" parent="Wjssdmnb7hO1VKRgGX_h-85" vertex="1">
          <mxGeometry x="20" width="177" height="20" as="geometry">
            <mxRectangle width="177" height="20" as="alternateBounds" />
          </mxGeometry>
        </mxCell>
        <mxCell id="Wjssdmnb7hO1VKRgGX_h-91" style="shape=tableRow;horizontal=0;startSize=0;swimlaneHead=0;swimlaneBody=0;fillColor=none;collapsible=0;dropTarget=0;points=[[0,0.5],[1,0.5]];portConstraint=eastwest;top=0;left=0;right=0;bottom=0;" parent="Wjssdmnb7hO1VKRgGX_h-69" vertex="1">
          <mxGeometry y="105" width="197" height="20" as="geometry" />
        </mxCell>
        <mxCell id="Wjssdmnb7hO1VKRgGX_h-92" style="shape=partialRectangle;connectable=0;fillColor=none;top=0;left=0;bottom=0;right=0;editable=1;overflow=hidden;whiteSpace=wrap;html=1;fontSize=10;" parent="Wjssdmnb7hO1VKRgGX_h-91" vertex="1">
          <mxGeometry width="20" height="20" as="geometry">
            <mxRectangle width="20" height="20" as="alternateBounds" />
          </mxGeometry>
        </mxCell>
        <mxCell id="Wjssdmnb7hO1VKRgGX_h-93" value="" style="shape=partialRectangle;connectable=0;fillColor=none;top=0;left=0;bottom=0;right=0;align=left;spacingLeft=6;overflow=hidden;whiteSpace=wrap;html=1;" parent="Wjssdmnb7hO1VKRgGX_h-91" vertex="1">
          <mxGeometry x="20" width="177" height="20" as="geometry">
            <mxRectangle width="177" height="20" as="alternateBounds" />
          </mxGeometry>
        </mxCell>
        <mxCell id="Wjssdmnb7hO1VKRgGX_h-103" value="villabetel_userprofile" style="shape=table;startSize=25;container=1;collapsible=1;childLayout=tableLayout;fixedRows=1;rowLines=0;fontStyle=1;align=center;resizeLast=1;html=1;fontSize=14;fontFamily=Helvetica;fillColor=#f0a30a;fontColor=#000000;strokeColor=#BD7000;swimlaneFillColor=none;gradientColor=none;fillStyle=auto;" parent="1" vertex="1">
          <mxGeometry x="585" y="-540" width="197" height="285" as="geometry">
            <mxRectangle x="2400" y="280" width="130" height="30" as="alternateBounds" />
          </mxGeometry>
        </mxCell>
        <mxCell id="Wjssdmnb7hO1VKRgGX_h-104" value="" style="shape=tableRow;horizontal=0;startSize=0;swimlaneHead=0;swimlaneBody=0;fillColor=none;collapsible=0;dropTarget=0;points=[[0,0.5],[1,0.5]];portConstraint=eastwest;top=0;left=0;right=0;bottom=1;" parent="Wjssdmnb7hO1VKRgGX_h-103" vertex="1">
          <mxGeometry y="25" width="197" height="20" as="geometry" />
        </mxCell>
        <mxCell id="Wjssdmnb7hO1VKRgGX_h-105" value="&lt;span style=&quot;font-size: 10px;&quot;&gt;PK&lt;/span&gt;" style="shape=partialRectangle;connectable=0;fillColor=none;top=0;left=0;bottom=0;right=0;fontStyle=1;overflow=hidden;whiteSpace=wrap;html=1;fontSize=10;" parent="Wjssdmnb7hO1VKRgGX_h-104" vertex="1">
          <mxGeometry width="20" height="20" as="geometry">
            <mxRectangle width="20" height="20" as="alternateBounds" />
          </mxGeometry>
        </mxCell>
        <mxCell id="Wjssdmnb7hO1VKRgGX_h-106" value="id" style="shape=partialRectangle;connectable=0;fillColor=none;top=0;left=0;bottom=0;right=0;align=left;spacingLeft=6;fontStyle=5;overflow=hidden;whiteSpace=wrap;html=1;" parent="Wjssdmnb7hO1VKRgGX_h-104" vertex="1">
          <mxGeometry x="20" width="177" height="20" as="geometry">
            <mxRectangle width="177" height="20" as="alternateBounds" />
          </mxGeometry>
        </mxCell>
        <mxCell id="Wjssdmnb7hO1VKRgGX_h-107" style="shape=tableRow;horizontal=0;startSize=0;swimlaneHead=0;swimlaneBody=0;fillColor=none;collapsible=0;dropTarget=0;points=[[0,0.5],[1,0.5]];portConstraint=eastwest;top=0;left=0;right=0;bottom=0;" parent="Wjssdmnb7hO1VKRgGX_h-103" vertex="1">
          <mxGeometry y="45" width="197" height="20" as="geometry" />
        </mxCell>
        <mxCell id="Wjssdmnb7hO1VKRgGX_h-108" value="UK" style="shape=partialRectangle;connectable=0;fillColor=none;top=0;left=0;bottom=0;right=0;editable=1;overflow=hidden;whiteSpace=wrap;html=1;fontSize=10;" parent="Wjssdmnb7hO1VKRgGX_h-107" vertex="1">
          <mxGeometry width="20" height="20" as="geometry">
            <mxRectangle width="20" height="20" as="alternateBounds" />
          </mxGeometry>
        </mxCell>
        <mxCell id="Wjssdmnb7hO1VKRgGX_h-109" value="password" style="shape=partialRectangle;connectable=0;fillColor=none;top=0;left=0;bottom=0;right=0;align=left;spacingLeft=6;overflow=hidden;whiteSpace=wrap;html=1;" parent="Wjssdmnb7hO1VKRgGX_h-107" vertex="1">
          <mxGeometry x="20" width="177" height="20" as="geometry">
            <mxRectangle width="177" height="20" as="alternateBounds" />
          </mxGeometry>
        </mxCell>
        <mxCell id="Wjssdmnb7hO1VKRgGX_h-116" style="shape=tableRow;horizontal=0;startSize=0;swimlaneHead=0;swimlaneBody=0;fillColor=none;collapsible=0;dropTarget=0;points=[[0,0.5],[1,0.5]];portConstraint=eastwest;top=0;left=0;right=0;bottom=0;" parent="Wjssdmnb7hO1VKRgGX_h-103" vertex="1">
          <mxGeometry y="65" width="197" height="20" as="geometry" />
        </mxCell>
        <mxCell id="Wjssdmnb7hO1VKRgGX_h-117" style="shape=partialRectangle;connectable=0;fillColor=none;top=0;left=0;bottom=0;right=0;editable=1;overflow=hidden;whiteSpace=wrap;html=1;fontSize=10;" parent="Wjssdmnb7hO1VKRgGX_h-116" vertex="1">
          <mxGeometry width="20" height="20" as="geometry">
            <mxRectangle width="20" height="20" as="alternateBounds" />
          </mxGeometry>
        </mxCell>
        <mxCell id="Wjssdmnb7hO1VKRgGX_h-118" value="last_llogin" style="shape=partialRectangle;connectable=0;fillColor=none;top=0;left=0;bottom=0;right=0;align=left;spacingLeft=6;overflow=hidden;whiteSpace=wrap;html=1;" parent="Wjssdmnb7hO1VKRgGX_h-116" vertex="1">
          <mxGeometry x="20" width="177" height="20" as="geometry">
            <mxRectangle width="177" height="20" as="alternateBounds" />
          </mxGeometry>
        </mxCell>
        <mxCell id="Wjssdmnb7hO1VKRgGX_h-119" style="shape=tableRow;horizontal=0;startSize=0;swimlaneHead=0;swimlaneBody=0;fillColor=none;collapsible=0;dropTarget=0;points=[[0,0.5],[1,0.5]];portConstraint=eastwest;top=0;left=0;right=0;bottom=0;" parent="Wjssdmnb7hO1VKRgGX_h-103" vertex="1">
          <mxGeometry y="85" width="197" height="20" as="geometry" />
        </mxCell>
        <mxCell id="Wjssdmnb7hO1VKRgGX_h-120" style="shape=partialRectangle;connectable=0;fillColor=none;top=0;left=0;bottom=0;right=0;editable=1;overflow=hidden;whiteSpace=wrap;html=1;fontSize=10;" parent="Wjssdmnb7hO1VKRgGX_h-119" vertex="1">
          <mxGeometry width="20" height="20" as="geometry">
            <mxRectangle width="20" height="20" as="alternateBounds" />
          </mxGeometry>
        </mxCell>
        <mxCell id="Wjssdmnb7hO1VKRgGX_h-121" value="is_superuser" style="shape=partialRectangle;connectable=0;fillColor=none;top=0;left=0;bottom=0;right=0;align=left;spacingLeft=6;overflow=hidden;whiteSpace=wrap;html=1;" parent="Wjssdmnb7hO1VKRgGX_h-119" vertex="1">
          <mxGeometry x="20" width="177" height="20" as="geometry">
            <mxRectangle width="177" height="20" as="alternateBounds" />
          </mxGeometry>
        </mxCell>
        <mxCell id="Wjssdmnb7hO1VKRgGX_h-122" style="shape=tableRow;horizontal=0;startSize=0;swimlaneHead=0;swimlaneBody=0;fillColor=none;collapsible=0;dropTarget=0;points=[[0,0.5],[1,0.5]];portConstraint=eastwest;top=0;left=0;right=0;bottom=0;" parent="Wjssdmnb7hO1VKRgGX_h-103" vertex="1">
          <mxGeometry y="105" width="197" height="20" as="geometry" />
        </mxCell>
        <mxCell id="Wjssdmnb7hO1VKRgGX_h-123" style="shape=partialRectangle;connectable=0;fillColor=none;top=0;left=0;bottom=0;right=0;editable=1;overflow=hidden;whiteSpace=wrap;html=1;fontSize=10;" parent="Wjssdmnb7hO1VKRgGX_h-122" vertex="1">
          <mxGeometry width="20" height="20" as="geometry">
            <mxRectangle width="20" height="20" as="alternateBounds" />
          </mxGeometry>
        </mxCell>
        <mxCell id="Wjssdmnb7hO1VKRgGX_h-124" value="email" style="shape=partialRectangle;connectable=0;fillColor=none;top=0;left=0;bottom=0;right=0;align=left;spacingLeft=6;overflow=hidden;whiteSpace=wrap;html=1;" parent="Wjssdmnb7hO1VKRgGX_h-122" vertex="1">
          <mxGeometry x="20" width="177" height="20" as="geometry">
            <mxRectangle width="177" height="20" as="alternateBounds" />
          </mxGeometry>
        </mxCell>
        <mxCell id="Wjssdmnb7hO1VKRgGX_h-125" style="shape=tableRow;horizontal=0;startSize=0;swimlaneHead=0;swimlaneBody=0;fillColor=none;collapsible=0;dropTarget=0;points=[[0,0.5],[1,0.5]];portConstraint=eastwest;top=0;left=0;right=0;bottom=0;" parent="Wjssdmnb7hO1VKRgGX_h-103" vertex="1">
          <mxGeometry y="125" width="197" height="20" as="geometry" />
        </mxCell>
        <mxCell id="Wjssdmnb7hO1VKRgGX_h-126" style="shape=partialRectangle;connectable=0;fillColor=none;top=0;left=0;bottom=0;right=0;editable=1;overflow=hidden;whiteSpace=wrap;html=1;fontSize=10;" parent="Wjssdmnb7hO1VKRgGX_h-125" vertex="1">
          <mxGeometry width="20" height="20" as="geometry">
            <mxRectangle width="20" height="20" as="alternateBounds" />
          </mxGeometry>
        </mxCell>
        <mxCell id="Wjssdmnb7hO1VKRgGX_h-127" value="first_name" style="shape=partialRectangle;connectable=0;fillColor=none;top=0;left=0;bottom=0;right=0;align=left;spacingLeft=6;overflow=hidden;whiteSpace=wrap;html=1;" parent="Wjssdmnb7hO1VKRgGX_h-125" vertex="1">
          <mxGeometry x="20" width="177" height="20" as="geometry">
            <mxRectangle width="177" height="20" as="alternateBounds" />
          </mxGeometry>
        </mxCell>
        <mxCell id="Wjssdmnb7hO1VKRgGX_h-128" value="" style="shape=tableRow;horizontal=0;startSize=0;swimlaneHead=0;swimlaneBody=0;fillColor=none;collapsible=0;dropTarget=0;points=[[0,0.5],[1,0.5]];portConstraint=eastwest;top=0;left=0;right=0;bottom=0;" parent="Wjssdmnb7hO1VKRgGX_h-103" vertex="1">
          <mxGeometry y="145" width="197" height="20" as="geometry" />
        </mxCell>
        <mxCell id="Wjssdmnb7hO1VKRgGX_h-129" value="" style="shape=partialRectangle;connectable=0;fillColor=none;top=0;left=0;bottom=0;right=0;editable=1;overflow=hidden;whiteSpace=wrap;html=1;fontSize=10;" parent="Wjssdmnb7hO1VKRgGX_h-128" vertex="1">
          <mxGeometry width="20" height="20" as="geometry">
            <mxRectangle width="20" height="20" as="alternateBounds" />
          </mxGeometry>
        </mxCell>
        <mxCell id="Wjssdmnb7hO1VKRgGX_h-130" value="last_name" style="shape=partialRectangle;connectable=0;fillColor=none;top=0;left=0;bottom=0;right=0;align=left;spacingLeft=6;overflow=hidden;whiteSpace=wrap;html=1;" parent="Wjssdmnb7hO1VKRgGX_h-128" vertex="1">
          <mxGeometry x="20" width="177" height="20" as="geometry">
            <mxRectangle width="177" height="20" as="alternateBounds" />
          </mxGeometry>
        </mxCell>
        <mxCell id="Wjssdmnb7hO1VKRgGX_h-131" value="" style="shape=tableRow;horizontal=0;startSize=0;swimlaneHead=0;swimlaneBody=0;fillColor=none;collapsible=0;dropTarget=0;points=[[0,0.5],[1,0.5]];portConstraint=eastwest;top=0;left=0;right=0;bottom=0;" parent="Wjssdmnb7hO1VKRgGX_h-103" vertex="1">
          <mxGeometry y="165" width="197" height="20" as="geometry" />
        </mxCell>
        <mxCell id="Wjssdmnb7hO1VKRgGX_h-132" value="" style="shape=partialRectangle;connectable=0;fillColor=none;top=0;left=0;bottom=0;right=0;editable=1;overflow=hidden;whiteSpace=wrap;html=1;fontSize=10;" parent="Wjssdmnb7hO1VKRgGX_h-131" vertex="1">
          <mxGeometry width="20" height="20" as="geometry">
            <mxRectangle width="20" height="20" as="alternateBounds" />
          </mxGeometry>
        </mxCell>
        <mxCell id="Wjssdmnb7hO1VKRgGX_h-133" value="document_number" style="shape=partialRectangle;connectable=0;fillColor=none;top=0;left=0;bottom=0;right=0;align=left;spacingLeft=6;overflow=hidden;whiteSpace=wrap;html=1;" parent="Wjssdmnb7hO1VKRgGX_h-131" vertex="1">
          <mxGeometry x="20" width="177" height="20" as="geometry">
            <mxRectangle width="177" height="20" as="alternateBounds" />
          </mxGeometry>
        </mxCell>
        <mxCell id="Wjssdmnb7hO1VKRgGX_h-134" value="" style="shape=tableRow;horizontal=0;startSize=0;swimlaneHead=0;swimlaneBody=0;fillColor=none;collapsible=0;dropTarget=0;points=[[0,0.5],[1,0.5]];portConstraint=eastwest;top=0;left=0;right=0;bottom=0;" parent="Wjssdmnb7hO1VKRgGX_h-103" vertex="1">
          <mxGeometry y="185" width="197" height="20" as="geometry" />
        </mxCell>
        <mxCell id="Wjssdmnb7hO1VKRgGX_h-135" value="" style="shape=partialRectangle;connectable=0;fillColor=none;top=0;left=0;bottom=0;right=0;editable=1;overflow=hidden;whiteSpace=wrap;html=1;fontSize=10;" parent="Wjssdmnb7hO1VKRgGX_h-134" vertex="1">
          <mxGeometry width="20" height="20" as="geometry">
            <mxRectangle width="20" height="20" as="alternateBounds" />
          </mxGeometry>
        </mxCell>
        <mxCell id="Wjssdmnb7hO1VKRgGX_h-136" value="profile_pic" style="shape=partialRectangle;connectable=0;fillColor=none;top=0;left=0;bottom=0;right=0;align=left;spacingLeft=6;overflow=hidden;whiteSpace=wrap;html=1;" parent="Wjssdmnb7hO1VKRgGX_h-134" vertex="1">
          <mxGeometry x="20" width="177" height="20" as="geometry">
            <mxRectangle width="177" height="20" as="alternateBounds" />
          </mxGeometry>
        </mxCell>
        <mxCell id="Wjssdmnb7hO1VKRgGX_h-137" value="" style="shape=tableRow;horizontal=0;startSize=0;swimlaneHead=0;swimlaneBody=0;fillColor=none;collapsible=0;dropTarget=0;points=[[0,0.5],[1,0.5]];portConstraint=eastwest;top=0;left=0;right=0;bottom=0;" parent="Wjssdmnb7hO1VKRgGX_h-103" vertex="1">
          <mxGeometry y="205" width="197" height="20" as="geometry" />
        </mxCell>
        <mxCell id="Wjssdmnb7hO1VKRgGX_h-138" value="" style="shape=partialRectangle;connectable=0;fillColor=none;top=0;left=0;bottom=0;right=0;editable=1;overflow=hidden;whiteSpace=wrap;html=1;fontSize=10;" parent="Wjssdmnb7hO1VKRgGX_h-137" vertex="1">
          <mxGeometry width="20" height="20" as="geometry">
            <mxRectangle width="20" height="20" as="alternateBounds" />
          </mxGeometry>
        </mxCell>
        <mxCell id="Wjssdmnb7hO1VKRgGX_h-139" value="slug" style="shape=partialRectangle;connectable=0;fillColor=none;top=0;left=0;bottom=0;right=0;align=left;spacingLeft=6;overflow=hidden;whiteSpace=wrap;html=1;" parent="Wjssdmnb7hO1VKRgGX_h-137" vertex="1">
          <mxGeometry x="20" width="177" height="20" as="geometry">
            <mxRectangle width="177" height="20" as="alternateBounds" />
          </mxGeometry>
        </mxCell>
        <mxCell id="Wjssdmnb7hO1VKRgGX_h-140" value="" style="shape=tableRow;horizontal=0;startSize=0;swimlaneHead=0;swimlaneBody=0;fillColor=none;collapsible=0;dropTarget=0;points=[[0,0.5],[1,0.5]];portConstraint=eastwest;top=0;left=0;right=0;bottom=0;" parent="Wjssdmnb7hO1VKRgGX_h-103" vertex="1">
          <mxGeometry y="225" width="197" height="20" as="geometry" />
        </mxCell>
        <mxCell id="Wjssdmnb7hO1VKRgGX_h-141" value="" style="shape=partialRectangle;connectable=0;fillColor=none;top=0;left=0;bottom=0;right=0;editable=1;overflow=hidden;whiteSpace=wrap;html=1;fontSize=10;" parent="Wjssdmnb7hO1VKRgGX_h-140" vertex="1">
          <mxGeometry width="20" height="20" as="geometry">
            <mxRectangle width="20" height="20" as="alternateBounds" />
          </mxGeometry>
        </mxCell>
        <mxCell id="Wjssdmnb7hO1VKRgGX_h-142" value="register_date" style="shape=partialRectangle;connectable=0;fillColor=none;top=0;left=0;bottom=0;right=0;align=left;spacingLeft=6;overflow=hidden;whiteSpace=wrap;html=1;" parent="Wjssdmnb7hO1VKRgGX_h-140" vertex="1">
          <mxGeometry x="20" width="177" height="20" as="geometry">
            <mxRectangle width="177" height="20" as="alternateBounds" />
          </mxGeometry>
        </mxCell>
        <mxCell id="Wjssdmnb7hO1VKRgGX_h-143" value="" style="shape=tableRow;horizontal=0;startSize=0;swimlaneHead=0;swimlaneBody=0;fillColor=none;collapsible=0;dropTarget=0;points=[[0,0.5],[1,0.5]];portConstraint=eastwest;top=0;left=0;right=0;bottom=0;" parent="Wjssdmnb7hO1VKRgGX_h-103" vertex="1">
          <mxGeometry y="245" width="197" height="20" as="geometry" />
        </mxCell>
        <mxCell id="Wjssdmnb7hO1VKRgGX_h-144" value="" style="shape=partialRectangle;connectable=0;fillColor=none;top=0;left=0;bottom=0;right=0;editable=1;overflow=hidden;whiteSpace=wrap;html=1;fontSize=10;" parent="Wjssdmnb7hO1VKRgGX_h-143" vertex="1">
          <mxGeometry width="20" height="20" as="geometry">
            <mxRectangle width="20" height="20" as="alternateBounds" />
          </mxGeometry>
        </mxCell>
        <mxCell id="Wjssdmnb7hO1VKRgGX_h-145" value="is_staff" style="shape=partialRectangle;connectable=0;fillColor=none;top=0;left=0;bottom=0;right=0;align=left;spacingLeft=6;overflow=hidden;whiteSpace=wrap;html=1;" parent="Wjssdmnb7hO1VKRgGX_h-143" vertex="1">
          <mxGeometry x="20" width="177" height="20" as="geometry">
            <mxRectangle width="177" height="20" as="alternateBounds" />
          </mxGeometry>
        </mxCell>
        <mxCell id="Wjssdmnb7hO1VKRgGX_h-146" value="" style="shape=tableRow;horizontal=0;startSize=0;swimlaneHead=0;swimlaneBody=0;fillColor=none;collapsible=0;dropTarget=0;points=[[0,0.5],[1,0.5]];portConstraint=eastwest;top=0;left=0;right=0;bottom=0;" parent="Wjssdmnb7hO1VKRgGX_h-103" vertex="1">
          <mxGeometry y="265" width="197" height="20" as="geometry" />
        </mxCell>
        <mxCell id="Wjssdmnb7hO1VKRgGX_h-147" value="" style="shape=partialRectangle;connectable=0;fillColor=none;top=0;left=0;bottom=0;right=0;editable=1;overflow=hidden;whiteSpace=wrap;html=1;fontSize=10;" parent="Wjssdmnb7hO1VKRgGX_h-146" vertex="1">
          <mxGeometry width="20" height="20" as="geometry">
            <mxRectangle width="20" height="20" as="alternateBounds" />
          </mxGeometry>
        </mxCell>
        <mxCell id="Wjssdmnb7hO1VKRgGX_h-148" value="is_active" style="shape=partialRectangle;connectable=0;fillColor=none;top=0;left=0;bottom=0;right=0;align=left;spacingLeft=6;overflow=hidden;whiteSpace=wrap;html=1;" parent="Wjssdmnb7hO1VKRgGX_h-146" vertex="1">
          <mxGeometry x="20" width="177" height="20" as="geometry">
            <mxRectangle width="177" height="20" as="alternateBounds" />
          </mxGeometry>
        </mxCell>
        <mxCell id="Wjssdmnb7hO1VKRgGX_h-149" value="" style="edgeStyle=entityRelationEdgeStyle;fontSize=12;html=1;endArrow=ERzeroToMany;endFill=1;rounded=0;exitX=1;exitY=0.5;exitDx=0;exitDy=0;entryX=0;entryY=0.5;entryDx=0;entryDy=0;" parent="1" source="yBg-bBu6KzpRyAFu0tlB-2" target="Wjssdmnb7hO1VKRgGX_h-8" edge="1">
          <mxGeometry width="100" height="100" relative="1" as="geometry">
            <mxPoint x="250" y="-320" as="sourcePoint" />
            <mxPoint x="350" y="-420" as="targetPoint" />
          </mxGeometry>
        </mxCell>
        <mxCell id="Wjssdmnb7hO1VKRgGX_h-151" value="" style="edgeStyle=entityRelationEdgeStyle;fontSize=12;html=1;endArrow=ERzeroToMany;endFill=1;rounded=0;exitX=0;exitY=0.5;exitDx=0;exitDy=0;entryX=1;entryY=0.5;entryDx=0;entryDy=0;" parent="1" source="Wjssdmnb7hO1VKRgGX_h-104" target="Wjssdmnb7hO1VKRgGX_h-11" edge="1">
          <mxGeometry width="100" height="100" relative="1" as="geometry">
            <mxPoint x="370" y="-320" as="sourcePoint" />
            <mxPoint x="470" y="-420" as="targetPoint" />
          </mxGeometry>
        </mxCell>
        <mxCell id="0DimLA1roo-2RukHT6Bk-2" value="" style="edgeStyle=entityRelationEdgeStyle;fontSize=12;html=1;endArrow=ERzeroToMany;endFill=1;rounded=0;exitX=0;exitY=0.5;exitDx=0;exitDy=0;entryX=1;entryY=0.5;entryDx=0;entryDy=0;" edge="1" parent="1" source="Wjssdmnb7hO1VKRgGX_h-104" target="Wjssdmnb7hO1VKRgGX_h-79">
          <mxGeometry width="100" height="100" relative="1" as="geometry">
            <mxPoint x="460" y="-350" as="sourcePoint" />
            <mxPoint x="550" y="-640" as="targetPoint" />
            <Array as="points">
              <mxPoint x="390" y="-430" />
              <mxPoint x="430" y="-380" />
              <mxPoint x="450" y="-370" />
              <mxPoint x="570" y="-410" />
              <mxPoint x="420" y="-380" />
              <mxPoint x="430" y="-340" />
            </Array>
          </mxGeometry>
        </mxCell>
        <mxCell id="0DimLA1roo-2RukHT6Bk-10" value="villabetel_category" style="shape=table;startSize=25;container=1;collapsible=1;childLayout=tableLayout;fixedRows=1;rowLines=0;fontStyle=1;align=center;resizeLast=1;html=1;fontSize=14;fontFamily=Helvetica;fillColor=#f0a30a;fontColor=#000000;strokeColor=#BD7000;swimlaneFillColor=none;gradientColor=none;fillStyle=auto;" vertex="1" parent="1">
          <mxGeometry x="10" y="-190" width="140" height="105" as="geometry">
            <mxRectangle x="2400" y="280" width="130" height="30" as="alternateBounds" />
          </mxGeometry>
        </mxCell>
        <mxCell id="0DimLA1roo-2RukHT6Bk-11" value="" style="shape=tableRow;horizontal=0;startSize=0;swimlaneHead=0;swimlaneBody=0;fillColor=none;collapsible=0;dropTarget=0;points=[[0,0.5],[1,0.5]];portConstraint=eastwest;top=0;left=0;right=0;bottom=1;" vertex="1" parent="0DimLA1roo-2RukHT6Bk-10">
          <mxGeometry y="25" width="140" height="20" as="geometry" />
        </mxCell>
        <mxCell id="0DimLA1roo-2RukHT6Bk-12" value="&lt;span style=&quot;font-size: 10px;&quot;&gt;PK&lt;/span&gt;" style="shape=partialRectangle;connectable=0;fillColor=none;top=0;left=0;bottom=0;right=0;fontStyle=1;overflow=hidden;whiteSpace=wrap;html=1;fontSize=10;" vertex="1" parent="0DimLA1roo-2RukHT6Bk-11">
          <mxGeometry width="20" height="20" as="geometry">
            <mxRectangle width="20" height="20" as="alternateBounds" />
          </mxGeometry>
        </mxCell>
        <mxCell id="0DimLA1roo-2RukHT6Bk-13" value="id" style="shape=partialRectangle;connectable=0;fillColor=none;top=0;left=0;bottom=0;right=0;align=left;spacingLeft=6;fontStyle=5;overflow=hidden;whiteSpace=wrap;html=1;" vertex="1" parent="0DimLA1roo-2RukHT6Bk-11">
          <mxGeometry x="20" width="120" height="20" as="geometry">
            <mxRectangle width="120" height="20" as="alternateBounds" />
          </mxGeometry>
        </mxCell>
        <mxCell id="0DimLA1roo-2RukHT6Bk-17" style="shape=tableRow;horizontal=0;startSize=0;swimlaneHead=0;swimlaneBody=0;fillColor=none;collapsible=0;dropTarget=0;points=[[0,0.5],[1,0.5]];portConstraint=eastwest;top=0;left=0;right=0;bottom=0;" vertex="1" parent="0DimLA1roo-2RukHT6Bk-10">
          <mxGeometry y="45" width="140" height="20" as="geometry" />
        </mxCell>
        <mxCell id="0DimLA1roo-2RukHT6Bk-18" style="shape=partialRectangle;connectable=0;fillColor=none;top=0;left=0;bottom=0;right=0;editable=1;overflow=hidden;whiteSpace=wrap;html=1;fontSize=10;" vertex="1" parent="0DimLA1roo-2RukHT6Bk-17">
          <mxGeometry width="20" height="20" as="geometry">
            <mxRectangle width="20" height="20" as="alternateBounds" />
          </mxGeometry>
        </mxCell>
        <mxCell id="0DimLA1roo-2RukHT6Bk-19" value="name" style="shape=partialRectangle;connectable=0;fillColor=none;top=0;left=0;bottom=0;right=0;align=left;spacingLeft=6;overflow=hidden;whiteSpace=wrap;html=1;" vertex="1" parent="0DimLA1roo-2RukHT6Bk-17">
          <mxGeometry x="20" width="120" height="20" as="geometry">
            <mxRectangle width="120" height="20" as="alternateBounds" />
          </mxGeometry>
        </mxCell>
        <mxCell id="0DimLA1roo-2RukHT6Bk-26" value="" style="shape=tableRow;horizontal=0;startSize=0;swimlaneHead=0;swimlaneBody=0;fillColor=none;collapsible=0;dropTarget=0;points=[[0,0.5],[1,0.5]];portConstraint=eastwest;top=0;left=0;right=0;bottom=0;" vertex="1" parent="0DimLA1roo-2RukHT6Bk-10">
          <mxGeometry y="65" width="140" height="20" as="geometry" />
        </mxCell>
        <mxCell id="0DimLA1roo-2RukHT6Bk-27" value="" style="shape=partialRectangle;connectable=0;fillColor=none;top=0;left=0;bottom=0;right=0;editable=1;overflow=hidden;whiteSpace=wrap;html=1;fontSize=10;" vertex="1" parent="0DimLA1roo-2RukHT6Bk-26">
          <mxGeometry width="20" height="20" as="geometry">
            <mxRectangle width="20" height="20" as="alternateBounds" />
          </mxGeometry>
        </mxCell>
        <mxCell id="0DimLA1roo-2RukHT6Bk-28" value="" style="shape=partialRectangle;connectable=0;fillColor=none;top=0;left=0;bottom=0;right=0;align=left;spacingLeft=6;overflow=hidden;whiteSpace=wrap;html=1;" vertex="1" parent="0DimLA1roo-2RukHT6Bk-26">
          <mxGeometry x="20" width="120" height="20" as="geometry">
            <mxRectangle width="120" height="20" as="alternateBounds" />
          </mxGeometry>
        </mxCell>
        <mxCell id="0DimLA1roo-2RukHT6Bk-29" value="" style="shape=tableRow;horizontal=0;startSize=0;swimlaneHead=0;swimlaneBody=0;fillColor=none;collapsible=0;dropTarget=0;points=[[0,0.5],[1,0.5]];portConstraint=eastwest;top=0;left=0;right=0;bottom=0;" vertex="1" parent="0DimLA1roo-2RukHT6Bk-10">
          <mxGeometry y="85" width="140" height="20" as="geometry" />
        </mxCell>
        <mxCell id="0DimLA1roo-2RukHT6Bk-30" value="" style="shape=partialRectangle;connectable=0;fillColor=none;top=0;left=0;bottom=0;right=0;editable=1;overflow=hidden;whiteSpace=wrap;html=1;fontSize=10;" vertex="1" parent="0DimLA1roo-2RukHT6Bk-29">
          <mxGeometry width="20" height="20" as="geometry">
            <mxRectangle width="20" height="20" as="alternateBounds" />
          </mxGeometry>
        </mxCell>
        <mxCell id="0DimLA1roo-2RukHT6Bk-31" value="" style="shape=partialRectangle;connectable=0;fillColor=none;top=0;left=0;bottom=0;right=0;align=left;spacingLeft=6;overflow=hidden;whiteSpace=wrap;html=1;" vertex="1" parent="0DimLA1roo-2RukHT6Bk-29">
          <mxGeometry x="20" width="120" height="20" as="geometry">
            <mxRectangle width="120" height="20" as="alternateBounds" />
          </mxGeometry>
        </mxCell>
        <mxCell id="0DimLA1roo-2RukHT6Bk-35" value="" style="edgeStyle=entityRelationEdgeStyle;fontSize=12;html=1;endArrow=ERzeroToMany;endFill=1;rounded=0;exitX=1;exitY=0.5;exitDx=0;exitDy=0;entryX=0;entryY=0.5;entryDx=0;entryDy=0;" edge="1" parent="1" source="0DimLA1roo-2RukHT6Bk-11" target="Wjssdmnb7hO1VKRgGX_h-39">
          <mxGeometry width="100" height="100" relative="1" as="geometry">
            <mxPoint x="80" y="-210" as="sourcePoint" />
            <mxPoint x="180" y="-310" as="targetPoint" />
          </mxGeometry>
        </mxCell>
        <mxCell id="0DimLA1roo-2RukHT6Bk-36" value="villabetel_productquantity" style="shape=table;startSize=25;container=1;collapsible=1;childLayout=tableLayout;fixedRows=1;rowLines=0;fontStyle=1;align=center;resizeLast=1;html=1;fontSize=14;fontFamily=Helvetica;fillColor=#f0a30a;fontColor=#000000;strokeColor=#BD7000;swimlaneFillColor=none;gradientColor=none;fillStyle=auto;" vertex="1" parent="1">
          <mxGeometry x="190" y="-170" width="197" height="125" as="geometry">
            <mxRectangle x="2400" y="280" width="130" height="30" as="alternateBounds" />
          </mxGeometry>
        </mxCell>
        <mxCell id="0DimLA1roo-2RukHT6Bk-37" value="" style="shape=tableRow;horizontal=0;startSize=0;swimlaneHead=0;swimlaneBody=0;fillColor=none;collapsible=0;dropTarget=0;points=[[0,0.5],[1,0.5]];portConstraint=eastwest;top=0;left=0;right=0;bottom=1;" vertex="1" parent="0DimLA1roo-2RukHT6Bk-36">
          <mxGeometry y="25" width="197" height="20" as="geometry" />
        </mxCell>
        <mxCell id="0DimLA1roo-2RukHT6Bk-38" value="&lt;span style=&quot;font-size: 10px;&quot;&gt;PK&lt;/span&gt;" style="shape=partialRectangle;connectable=0;fillColor=none;top=0;left=0;bottom=0;right=0;fontStyle=1;overflow=hidden;whiteSpace=wrap;html=1;fontSize=10;" vertex="1" parent="0DimLA1roo-2RukHT6Bk-37">
          <mxGeometry width="20" height="20" as="geometry">
            <mxRectangle width="20" height="20" as="alternateBounds" />
          </mxGeometry>
        </mxCell>
        <mxCell id="0DimLA1roo-2RukHT6Bk-39" value="id" style="shape=partialRectangle;connectable=0;fillColor=none;top=0;left=0;bottom=0;right=0;align=left;spacingLeft=6;fontStyle=5;overflow=hidden;whiteSpace=wrap;html=1;" vertex="1" parent="0DimLA1roo-2RukHT6Bk-37">
          <mxGeometry x="20" width="177" height="20" as="geometry">
            <mxRectangle width="177" height="20" as="alternateBounds" />
          </mxGeometry>
        </mxCell>
        <mxCell id="0DimLA1roo-2RukHT6Bk-40" style="shape=tableRow;horizontal=0;startSize=0;swimlaneHead=0;swimlaneBody=0;fillColor=none;collapsible=0;dropTarget=0;points=[[0,0.5],[1,0.5]];portConstraint=eastwest;top=0;left=0;right=0;bottom=0;" vertex="1" parent="0DimLA1roo-2RukHT6Bk-36">
          <mxGeometry y="45" width="197" height="20" as="geometry" />
        </mxCell>
        <mxCell id="0DimLA1roo-2RukHT6Bk-41" value="FK" style="shape=partialRectangle;connectable=0;fillColor=none;top=0;left=0;bottom=0;right=0;editable=1;overflow=hidden;whiteSpace=wrap;html=1;fontSize=10;" vertex="1" parent="0DimLA1roo-2RukHT6Bk-40">
          <mxGeometry width="20" height="20" as="geometry">
            <mxRectangle width="20" height="20" as="alternateBounds" />
          </mxGeometry>
        </mxCell>
        <mxCell id="0DimLA1roo-2RukHT6Bk-42" value="account_id" style="shape=partialRectangle;connectable=0;fillColor=none;top=0;left=0;bottom=0;right=0;align=left;spacingLeft=6;overflow=hidden;whiteSpace=wrap;html=1;" vertex="1" parent="0DimLA1roo-2RukHT6Bk-40">
          <mxGeometry x="20" width="177" height="20" as="geometry">
            <mxRectangle width="177" height="20" as="alternateBounds" />
          </mxGeometry>
        </mxCell>
        <mxCell id="0DimLA1roo-2RukHT6Bk-43" style="shape=tableRow;horizontal=0;startSize=0;swimlaneHead=0;swimlaneBody=0;fillColor=none;collapsible=0;dropTarget=0;points=[[0,0.5],[1,0.5]];portConstraint=eastwest;top=0;left=0;right=0;bottom=0;" vertex="1" parent="0DimLA1roo-2RukHT6Bk-36">
          <mxGeometry y="65" width="197" height="25" as="geometry" />
        </mxCell>
        <mxCell id="0DimLA1roo-2RukHT6Bk-44" value="FK" style="shape=partialRectangle;connectable=0;fillColor=none;top=0;left=0;bottom=0;right=0;editable=1;overflow=hidden;whiteSpace=wrap;html=1;fontSize=10;" vertex="1" parent="0DimLA1roo-2RukHT6Bk-43">
          <mxGeometry width="20" height="25" as="geometry">
            <mxRectangle width="20" height="25" as="alternateBounds" />
          </mxGeometry>
        </mxCell>
        <mxCell id="0DimLA1roo-2RukHT6Bk-45" value="product_id" style="shape=partialRectangle;connectable=0;fillColor=none;top=0;left=0;bottom=0;right=0;align=left;spacingLeft=6;overflow=hidden;whiteSpace=wrap;html=1;" vertex="1" parent="0DimLA1roo-2RukHT6Bk-43">
          <mxGeometry x="20" width="177" height="25" as="geometry">
            <mxRectangle width="177" height="25" as="alternateBounds" />
          </mxGeometry>
        </mxCell>
        <mxCell id="0DimLA1roo-2RukHT6Bk-46" style="shape=tableRow;horizontal=0;startSize=0;swimlaneHead=0;swimlaneBody=0;fillColor=none;collapsible=0;dropTarget=0;points=[[0,0.5],[1,0.5]];portConstraint=eastwest;top=0;left=0;right=0;bottom=0;" vertex="1" parent="0DimLA1roo-2RukHT6Bk-36">
          <mxGeometry y="90" width="197" height="25" as="geometry" />
        </mxCell>
        <mxCell id="0DimLA1roo-2RukHT6Bk-47" value="" style="shape=partialRectangle;connectable=0;fillColor=none;top=0;left=0;bottom=0;right=0;editable=1;overflow=hidden;whiteSpace=wrap;html=1;fontSize=10;" vertex="1" parent="0DimLA1roo-2RukHT6Bk-46">
          <mxGeometry width="20" height="25" as="geometry">
            <mxRectangle width="20" height="25" as="alternateBounds" />
          </mxGeometry>
        </mxCell>
        <mxCell id="0DimLA1roo-2RukHT6Bk-48" value="quantity" style="shape=partialRectangle;connectable=0;fillColor=none;top=0;left=0;bottom=0;right=0;align=left;spacingLeft=6;overflow=hidden;whiteSpace=wrap;html=1;" vertex="1" parent="0DimLA1roo-2RukHT6Bk-46">
          <mxGeometry x="20" width="177" height="25" as="geometry">
            <mxRectangle width="177" height="25" as="alternateBounds" />
          </mxGeometry>
        </mxCell>
        <mxCell id="0DimLA1roo-2RukHT6Bk-49" value="" style="edgeStyle=entityRelationEdgeStyle;fontSize=12;html=1;endArrow=ERzeroToMany;endFill=1;rounded=0;entryX=1;entryY=0.5;entryDx=0;entryDy=0;exitX=1;exitY=0.5;exitDx=0;exitDy=0;" edge="1" parent="1" source="Wjssdmnb7hO1VKRgGX_h-36" target="0DimLA1roo-2RukHT6Bk-43">
          <mxGeometry width="100" height="100" relative="1" as="geometry">
            <mxPoint x="460" y="-420" as="sourcePoint" />
            <mxPoint x="590" y="-150" as="targetPoint" />
          </mxGeometry>
        </mxCell>
        <mxCell id="0DimLA1roo-2RukHT6Bk-50" value="villabetel_account" style="shape=table;startSize=25;container=1;collapsible=1;childLayout=tableLayout;fixedRows=1;rowLines=0;fontStyle=1;align=center;resizeLast=1;html=1;fontSize=14;fontFamily=Helvetica;fillColor=#f0a30a;fontColor=#000000;strokeColor=#BD7000;swimlaneFillColor=none;gradientColor=none;fillStyle=auto;" vertex="1" parent="1">
          <mxGeometry x="570" y="-205" width="197" height="190" as="geometry">
            <mxRectangle x="2400" y="280" width="130" height="30" as="alternateBounds" />
          </mxGeometry>
        </mxCell>
        <mxCell id="0DimLA1roo-2RukHT6Bk-51" value="" style="shape=tableRow;horizontal=0;startSize=0;swimlaneHead=0;swimlaneBody=0;fillColor=none;collapsible=0;dropTarget=0;points=[[0,0.5],[1,0.5]];portConstraint=eastwest;top=0;left=0;right=0;bottom=1;" vertex="1" parent="0DimLA1roo-2RukHT6Bk-50">
          <mxGeometry y="25" width="197" height="20" as="geometry" />
        </mxCell>
        <mxCell id="0DimLA1roo-2RukHT6Bk-52" value="&lt;span style=&quot;font-size: 10px;&quot;&gt;PK&lt;/span&gt;" style="shape=partialRectangle;connectable=0;fillColor=none;top=0;left=0;bottom=0;right=0;fontStyle=1;overflow=hidden;whiteSpace=wrap;html=1;fontSize=10;" vertex="1" parent="0DimLA1roo-2RukHT6Bk-51">
          <mxGeometry width="20" height="20" as="geometry">
            <mxRectangle width="20" height="20" as="alternateBounds" />
          </mxGeometry>
        </mxCell>
        <mxCell id="0DimLA1roo-2RukHT6Bk-53" value="id" style="shape=partialRectangle;connectable=0;fillColor=none;top=0;left=0;bottom=0;right=0;align=left;spacingLeft=6;fontStyle=5;overflow=hidden;whiteSpace=wrap;html=1;" vertex="1" parent="0DimLA1roo-2RukHT6Bk-51">
          <mxGeometry x="20" width="177" height="20" as="geometry">
            <mxRectangle width="177" height="20" as="alternateBounds" />
          </mxGeometry>
        </mxCell>
        <mxCell id="0DimLA1roo-2RukHT6Bk-54" style="shape=tableRow;horizontal=0;startSize=0;swimlaneHead=0;swimlaneBody=0;fillColor=none;collapsible=0;dropTarget=0;points=[[0,0.5],[1,0.5]];portConstraint=eastwest;top=0;left=0;right=0;bottom=0;" vertex="1" parent="0DimLA1roo-2RukHT6Bk-50">
          <mxGeometry y="45" width="197" height="20" as="geometry" />
        </mxCell>
        <mxCell id="0DimLA1roo-2RukHT6Bk-55" value="" style="shape=partialRectangle;connectable=0;fillColor=none;top=0;left=0;bottom=0;right=0;editable=1;overflow=hidden;whiteSpace=wrap;html=1;fontSize=10;" vertex="1" parent="0DimLA1roo-2RukHT6Bk-54">
          <mxGeometry width="20" height="20" as="geometry">
            <mxRectangle width="20" height="20" as="alternateBounds" />
          </mxGeometry>
        </mxCell>
        <mxCell id="0DimLA1roo-2RukHT6Bk-56" value="ammount" style="shape=partialRectangle;connectable=0;fillColor=none;top=0;left=0;bottom=0;right=0;align=left;spacingLeft=6;overflow=hidden;whiteSpace=wrap;html=1;" vertex="1" parent="0DimLA1roo-2RukHT6Bk-54">
          <mxGeometry x="20" width="177" height="20" as="geometry">
            <mxRectangle width="177" height="20" as="alternateBounds" />
          </mxGeometry>
        </mxCell>
        <mxCell id="0DimLA1roo-2RukHT6Bk-57" style="shape=tableRow;horizontal=0;startSize=0;swimlaneHead=0;swimlaneBody=0;fillColor=none;collapsible=0;dropTarget=0;points=[[0,0.5],[1,0.5]];portConstraint=eastwest;top=0;left=0;right=0;bottom=0;" vertex="1" parent="0DimLA1roo-2RukHT6Bk-50">
          <mxGeometry y="65" width="197" height="20" as="geometry" />
        </mxCell>
        <mxCell id="0DimLA1roo-2RukHT6Bk-58" style="shape=partialRectangle;connectable=0;fillColor=none;top=0;left=0;bottom=0;right=0;editable=1;overflow=hidden;whiteSpace=wrap;html=1;fontSize=10;" vertex="1" parent="0DimLA1roo-2RukHT6Bk-57">
          <mxGeometry width="20" height="20" as="geometry">
            <mxRectangle width="20" height="20" as="alternateBounds" />
          </mxGeometry>
        </mxCell>
        <mxCell id="0DimLA1roo-2RukHT6Bk-59" value="state" style="shape=partialRectangle;connectable=0;fillColor=none;top=0;left=0;bottom=0;right=0;align=left;spacingLeft=6;overflow=hidden;whiteSpace=wrap;html=1;" vertex="1" parent="0DimLA1roo-2RukHT6Bk-57">
          <mxGeometry x="20" width="177" height="20" as="geometry">
            <mxRectangle width="177" height="20" as="alternateBounds" />
          </mxGeometry>
        </mxCell>
        <mxCell id="0DimLA1roo-2RukHT6Bk-60" style="shape=tableRow;horizontal=0;startSize=0;swimlaneHead=0;swimlaneBody=0;fillColor=none;collapsible=0;dropTarget=0;points=[[0,0.5],[1,0.5]];portConstraint=eastwest;top=0;left=0;right=0;bottom=0;" vertex="1" parent="0DimLA1roo-2RukHT6Bk-50">
          <mxGeometry y="85" width="197" height="20" as="geometry" />
        </mxCell>
        <mxCell id="0DimLA1roo-2RukHT6Bk-61" style="shape=partialRectangle;connectable=0;fillColor=none;top=0;left=0;bottom=0;right=0;editable=1;overflow=hidden;whiteSpace=wrap;html=1;fontSize=10;" vertex="1" parent="0DimLA1roo-2RukHT6Bk-60">
          <mxGeometry width="20" height="20" as="geometry">
            <mxRectangle width="20" height="20" as="alternateBounds" />
          </mxGeometry>
        </mxCell>
        <mxCell id="0DimLA1roo-2RukHT6Bk-62" value="timestamp" style="shape=partialRectangle;connectable=0;fillColor=none;top=0;left=0;bottom=0;right=0;align=left;spacingLeft=6;overflow=hidden;whiteSpace=wrap;html=1;" vertex="1" parent="0DimLA1roo-2RukHT6Bk-60">
          <mxGeometry x="20" width="177" height="20" as="geometry">
            <mxRectangle width="177" height="20" as="alternateBounds" />
          </mxGeometry>
        </mxCell>
        <mxCell id="0DimLA1roo-2RukHT6Bk-63" style="shape=tableRow;horizontal=0;startSize=0;swimlaneHead=0;swimlaneBody=0;fillColor=none;collapsible=0;dropTarget=0;points=[[0,0.5],[1,0.5]];portConstraint=eastwest;top=0;left=0;right=0;bottom=0;" vertex="1" parent="0DimLA1roo-2RukHT6Bk-50">
          <mxGeometry y="105" width="197" height="20" as="geometry" />
        </mxCell>
        <mxCell id="0DimLA1roo-2RukHT6Bk-64" value="FK" style="shape=partialRectangle;connectable=0;fillColor=none;top=0;left=0;bottom=0;right=0;editable=1;overflow=hidden;whiteSpace=wrap;html=1;fontSize=10;" vertex="1" parent="0DimLA1roo-2RukHT6Bk-63">
          <mxGeometry width="20" height="20" as="geometry">
            <mxRectangle width="20" height="20" as="alternateBounds" />
          </mxGeometry>
        </mxCell>
        <mxCell id="0DimLA1roo-2RukHT6Bk-65" value="table_id" style="shape=partialRectangle;connectable=0;fillColor=none;top=0;left=0;bottom=0;right=0;align=left;spacingLeft=6;overflow=hidden;whiteSpace=wrap;html=1;" vertex="1" parent="0DimLA1roo-2RukHT6Bk-63">
          <mxGeometry x="20" width="177" height="20" as="geometry">
            <mxRectangle width="177" height="20" as="alternateBounds" />
          </mxGeometry>
        </mxCell>
        <mxCell id="0DimLA1roo-2RukHT6Bk-72" style="shape=tableRow;horizontal=0;startSize=0;swimlaneHead=0;swimlaneBody=0;fillColor=none;collapsible=0;dropTarget=0;points=[[0,0.5],[1,0.5]];portConstraint=eastwest;top=0;left=0;right=0;bottom=0;" vertex="1" parent="0DimLA1roo-2RukHT6Bk-50">
          <mxGeometry y="125" width="197" height="20" as="geometry" />
        </mxCell>
        <mxCell id="0DimLA1roo-2RukHT6Bk-73" value="" style="shape=partialRectangle;connectable=0;fillColor=none;top=0;left=0;bottom=0;right=0;editable=1;overflow=hidden;whiteSpace=wrap;html=1;fontSize=10;" vertex="1" parent="0DimLA1roo-2RukHT6Bk-72">
          <mxGeometry width="20" height="20" as="geometry">
            <mxRectangle width="20" height="20" as="alternateBounds" />
          </mxGeometry>
        </mxCell>
        <mxCell id="0DimLA1roo-2RukHT6Bk-74" value="price" style="shape=partialRectangle;connectable=0;fillColor=none;top=0;left=0;bottom=0;right=0;align=left;spacingLeft=6;overflow=hidden;whiteSpace=wrap;html=1;" vertex="1" parent="0DimLA1roo-2RukHT6Bk-72">
          <mxGeometry x="20" width="177" height="20" as="geometry">
            <mxRectangle width="177" height="20" as="alternateBounds" />
          </mxGeometry>
        </mxCell>
        <mxCell id="0DimLA1roo-2RukHT6Bk-75" style="shape=tableRow;horizontal=0;startSize=0;swimlaneHead=0;swimlaneBody=0;fillColor=none;collapsible=0;dropTarget=0;points=[[0,0.5],[1,0.5]];portConstraint=eastwest;top=0;left=0;right=0;bottom=0;" vertex="1" parent="0DimLA1roo-2RukHT6Bk-50">
          <mxGeometry y="145" width="197" height="20" as="geometry" />
        </mxCell>
        <mxCell id="0DimLA1roo-2RukHT6Bk-76" value="FK" style="shape=partialRectangle;connectable=0;fillColor=none;top=0;left=0;bottom=0;right=0;editable=1;overflow=hidden;whiteSpace=wrap;html=1;fontSize=10;" vertex="1" parent="0DimLA1roo-2RukHT6Bk-75">
          <mxGeometry width="20" height="20" as="geometry">
            <mxRectangle width="20" height="20" as="alternateBounds" />
          </mxGeometry>
        </mxCell>
        <mxCell id="0DimLA1roo-2RukHT6Bk-77" value="waiter_id" style="shape=partialRectangle;connectable=0;fillColor=none;top=0;left=0;bottom=0;right=0;align=left;spacingLeft=6;overflow=hidden;whiteSpace=wrap;html=1;" vertex="1" parent="0DimLA1roo-2RukHT6Bk-75">
          <mxGeometry x="20" width="177" height="20" as="geometry">
            <mxRectangle width="177" height="20" as="alternateBounds" />
          </mxGeometry>
        </mxCell>
        <mxCell id="0DimLA1roo-2RukHT6Bk-66" value="" style="shape=tableRow;horizontal=0;startSize=0;swimlaneHead=0;swimlaneBody=0;fillColor=none;collapsible=0;dropTarget=0;points=[[0,0.5],[1,0.5]];portConstraint=eastwest;top=0;left=0;right=0;bottom=0;" vertex="1" parent="0DimLA1roo-2RukHT6Bk-50">
          <mxGeometry y="165" width="197" height="25" as="geometry" />
        </mxCell>
        <mxCell id="0DimLA1roo-2RukHT6Bk-67" value="" style="shape=partialRectangle;connectable=0;fillColor=none;top=0;left=0;bottom=0;right=0;editable=1;overflow=hidden;whiteSpace=wrap;html=1;fontSize=10;" vertex="1" parent="0DimLA1roo-2RukHT6Bk-66">
          <mxGeometry width="20" height="25" as="geometry">
            <mxRectangle width="20" height="25" as="alternateBounds" />
          </mxGeometry>
        </mxCell>
        <mxCell id="0DimLA1roo-2RukHT6Bk-68" value="" style="shape=partialRectangle;connectable=0;fillColor=none;top=0;left=0;bottom=0;right=0;align=left;spacingLeft=6;overflow=hidden;whiteSpace=wrap;html=1;" vertex="1" parent="0DimLA1roo-2RukHT6Bk-66">
          <mxGeometry x="20" width="177" height="25" as="geometry">
            <mxRectangle width="177" height="25" as="alternateBounds" />
          </mxGeometry>
        </mxCell>
        <mxCell id="0DimLA1roo-2RukHT6Bk-78" value="" style="edgeStyle=entityRelationEdgeStyle;fontSize=12;html=1;endArrow=ERzeroToMany;endFill=1;rounded=0;entryX=1;entryY=0.5;entryDx=0;entryDy=0;exitX=0;exitY=0.5;exitDx=0;exitDy=0;" edge="1" parent="1" source="0DimLA1roo-2RukHT6Bk-51" target="0DimLA1roo-2RukHT6Bk-40">
          <mxGeometry width="100" height="100" relative="1" as="geometry">
            <mxPoint x="350" y="60" as="sourcePoint" />
            <mxPoint x="450" y="-40" as="targetPoint" />
          </mxGeometry>
        </mxCell>
        <mxCell id="0DimLA1roo-2RukHT6Bk-79" value="" style="edgeStyle=entityRelationEdgeStyle;fontSize=12;html=1;endArrow=ERzeroToMany;endFill=1;rounded=0;entryX=0;entryY=0.5;entryDx=0;entryDy=0;exitX=1;exitY=0.5;exitDx=0;exitDy=0;" edge="1" parent="1" source="Wjssdmnb7hO1VKRgGX_h-70" target="0DimLA1roo-2RukHT6Bk-75">
          <mxGeometry width="100" height="100" relative="1" as="geometry">
            <mxPoint x="780" y="-190" as="sourcePoint" />
            <mxPoint x="880" y="-290" as="targetPoint" />
            <Array as="points">
              <mxPoint x="810" y="-350" />
              <mxPoint x="800" y="-440" />
            </Array>
          </mxGeometry>
        </mxCell>
        <mxCell id="0DimLA1roo-2RukHT6Bk-81" value="villabetel_table" style="shape=table;startSize=25;container=1;collapsible=1;childLayout=tableLayout;fixedRows=1;rowLines=0;fontStyle=1;align=center;resizeLast=1;html=1;fontSize=14;fontFamily=Helvetica;fillColor=#f0a30a;fontColor=#000000;strokeColor=#BD7000;swimlaneFillColor=none;gradientColor=none;fillStyle=auto;" vertex="1" parent="1">
          <mxGeometry x="838" y="-300" width="197" height="110" as="geometry">
            <mxRectangle x="2400" y="280" width="130" height="30" as="alternateBounds" />
          </mxGeometry>
        </mxCell>
        <mxCell id="0DimLA1roo-2RukHT6Bk-82" value="" style="shape=tableRow;horizontal=0;startSize=0;swimlaneHead=0;swimlaneBody=0;fillColor=none;collapsible=0;dropTarget=0;points=[[0,0.5],[1,0.5]];portConstraint=eastwest;top=0;left=0;right=0;bottom=1;" vertex="1" parent="0DimLA1roo-2RukHT6Bk-81">
          <mxGeometry y="25" width="197" height="20" as="geometry" />
        </mxCell>
        <mxCell id="0DimLA1roo-2RukHT6Bk-83" value="&lt;span style=&quot;font-size: 10px;&quot;&gt;PK&lt;/span&gt;" style="shape=partialRectangle;connectable=0;fillColor=none;top=0;left=0;bottom=0;right=0;fontStyle=1;overflow=hidden;whiteSpace=wrap;html=1;fontSize=10;" vertex="1" parent="0DimLA1roo-2RukHT6Bk-82">
          <mxGeometry width="20" height="20" as="geometry">
            <mxRectangle width="20" height="20" as="alternateBounds" />
          </mxGeometry>
        </mxCell>
        <mxCell id="0DimLA1roo-2RukHT6Bk-84" value="id" style="shape=partialRectangle;connectable=0;fillColor=none;top=0;left=0;bottom=0;right=0;align=left;spacingLeft=6;fontStyle=5;overflow=hidden;whiteSpace=wrap;html=1;" vertex="1" parent="0DimLA1roo-2RukHT6Bk-82">
          <mxGeometry x="20" width="177" height="20" as="geometry">
            <mxRectangle width="177" height="20" as="alternateBounds" />
          </mxGeometry>
        </mxCell>
        <mxCell id="0DimLA1roo-2RukHT6Bk-85" style="shape=tableRow;horizontal=0;startSize=0;swimlaneHead=0;swimlaneBody=0;fillColor=none;collapsible=0;dropTarget=0;points=[[0,0.5],[1,0.5]];portConstraint=eastwest;top=0;left=0;right=0;bottom=0;" vertex="1" parent="0DimLA1roo-2RukHT6Bk-81">
          <mxGeometry y="45" width="197" height="20" as="geometry" />
        </mxCell>
        <mxCell id="0DimLA1roo-2RukHT6Bk-86" value="" style="shape=partialRectangle;connectable=0;fillColor=none;top=0;left=0;bottom=0;right=0;editable=1;overflow=hidden;whiteSpace=wrap;html=1;fontSize=10;" vertex="1" parent="0DimLA1roo-2RukHT6Bk-85">
          <mxGeometry width="20" height="20" as="geometry">
            <mxRectangle width="20" height="20" as="alternateBounds" />
          </mxGeometry>
        </mxCell>
        <mxCell id="0DimLA1roo-2RukHT6Bk-87" value="number" style="shape=partialRectangle;connectable=0;fillColor=none;top=0;left=0;bottom=0;right=0;align=left;spacingLeft=6;overflow=hidden;whiteSpace=wrap;html=1;" vertex="1" parent="0DimLA1roo-2RukHT6Bk-85">
          <mxGeometry x="20" width="177" height="20" as="geometry">
            <mxRectangle width="177" height="20" as="alternateBounds" />
          </mxGeometry>
        </mxCell>
        <mxCell id="0DimLA1roo-2RukHT6Bk-94" style="shape=tableRow;horizontal=0;startSize=0;swimlaneHead=0;swimlaneBody=0;fillColor=none;collapsible=0;dropTarget=0;points=[[0,0.5],[1,0.5]];portConstraint=eastwest;top=0;left=0;right=0;bottom=0;" vertex="1" parent="0DimLA1roo-2RukHT6Bk-81">
          <mxGeometry y="65" width="197" height="20" as="geometry" />
        </mxCell>
        <mxCell id="0DimLA1roo-2RukHT6Bk-95" value="FK" style="shape=partialRectangle;connectable=0;fillColor=none;top=0;left=0;bottom=0;right=0;editable=1;overflow=hidden;whiteSpace=wrap;html=1;fontSize=10;" vertex="1" parent="0DimLA1roo-2RukHT6Bk-94">
          <mxGeometry width="20" height="20" as="geometry">
            <mxRectangle width="20" height="20" as="alternateBounds" />
          </mxGeometry>
        </mxCell>
        <mxCell id="0DimLA1roo-2RukHT6Bk-96" value="area_id" style="shape=partialRectangle;connectable=0;fillColor=none;top=0;left=0;bottom=0;right=0;align=left;spacingLeft=6;overflow=hidden;whiteSpace=wrap;html=1;" vertex="1" parent="0DimLA1roo-2RukHT6Bk-94">
          <mxGeometry x="20" width="177" height="20" as="geometry">
            <mxRectangle width="177" height="20" as="alternateBounds" />
          </mxGeometry>
        </mxCell>
        <mxCell id="0DimLA1roo-2RukHT6Bk-103" value="" style="shape=tableRow;horizontal=0;startSize=0;swimlaneHead=0;swimlaneBody=0;fillColor=none;collapsible=0;dropTarget=0;points=[[0,0.5],[1,0.5]];portConstraint=eastwest;top=0;left=0;right=0;bottom=0;" vertex="1" parent="0DimLA1roo-2RukHT6Bk-81">
          <mxGeometry y="85" width="197" height="25" as="geometry" />
        </mxCell>
        <mxCell id="0DimLA1roo-2RukHT6Bk-104" value="" style="shape=partialRectangle;connectable=0;fillColor=none;top=0;left=0;bottom=0;right=0;editable=1;overflow=hidden;whiteSpace=wrap;html=1;fontSize=10;" vertex="1" parent="0DimLA1roo-2RukHT6Bk-103">
          <mxGeometry width="20" height="25" as="geometry">
            <mxRectangle width="20" height="25" as="alternateBounds" />
          </mxGeometry>
        </mxCell>
        <mxCell id="0DimLA1roo-2RukHT6Bk-105" value="" style="shape=partialRectangle;connectable=0;fillColor=none;top=0;left=0;bottom=0;right=0;align=left;spacingLeft=6;overflow=hidden;whiteSpace=wrap;html=1;" vertex="1" parent="0DimLA1roo-2RukHT6Bk-103">
          <mxGeometry x="20" width="177" height="25" as="geometry">
            <mxRectangle width="177" height="25" as="alternateBounds" />
          </mxGeometry>
        </mxCell>
        <mxCell id="0DimLA1roo-2RukHT6Bk-106" value="" style="edgeStyle=entityRelationEdgeStyle;fontSize=12;html=1;endArrow=ERzeroToMany;endFill=1;rounded=0;entryX=1;entryY=0.5;entryDx=0;entryDy=0;exitX=0;exitY=0.5;exitDx=0;exitDy=0;" edge="1" parent="1" source="0DimLA1roo-2RukHT6Bk-82" target="0DimLA1roo-2RukHT6Bk-63">
          <mxGeometry width="100" height="100" relative="1" as="geometry">
            <mxPoint x="850" y="-10" as="sourcePoint" />
            <mxPoint x="950" y="-110" as="targetPoint" />
          </mxGeometry>
        </mxCell>
        <mxCell id="0DimLA1roo-2RukHT6Bk-111" value="villabetel_area" style="shape=table;startSize=25;container=1;collapsible=1;childLayout=tableLayout;fixedRows=1;rowLines=0;fontStyle=1;align=center;resizeLast=1;html=1;fontSize=14;fontFamily=Helvetica;fillColor=#f0a30a;fontColor=#000000;strokeColor=#BD7000;swimlaneFillColor=none;gradientColor=none;fillStyle=auto;" vertex="1" parent="1">
          <mxGeometry x="838" y="-490" width="197" height="90" as="geometry">
            <mxRectangle x="2400" y="280" width="130" height="30" as="alternateBounds" />
          </mxGeometry>
        </mxCell>
        <mxCell id="0DimLA1roo-2RukHT6Bk-112" value="" style="shape=tableRow;horizontal=0;startSize=0;swimlaneHead=0;swimlaneBody=0;fillColor=none;collapsible=0;dropTarget=0;points=[[0,0.5],[1,0.5]];portConstraint=eastwest;top=0;left=0;right=0;bottom=1;" vertex="1" parent="0DimLA1roo-2RukHT6Bk-111">
          <mxGeometry y="25" width="197" height="20" as="geometry" />
        </mxCell>
        <mxCell id="0DimLA1roo-2RukHT6Bk-113" value="&lt;span style=&quot;font-size: 10px;&quot;&gt;PK&lt;/span&gt;" style="shape=partialRectangle;connectable=0;fillColor=none;top=0;left=0;bottom=0;right=0;fontStyle=1;overflow=hidden;whiteSpace=wrap;html=1;fontSize=10;" vertex="1" parent="0DimLA1roo-2RukHT6Bk-112">
          <mxGeometry width="20" height="20" as="geometry">
            <mxRectangle width="20" height="20" as="alternateBounds" />
          </mxGeometry>
        </mxCell>
        <mxCell id="0DimLA1roo-2RukHT6Bk-114" value="id" style="shape=partialRectangle;connectable=0;fillColor=none;top=0;left=0;bottom=0;right=0;align=left;spacingLeft=6;fontStyle=5;overflow=hidden;whiteSpace=wrap;html=1;" vertex="1" parent="0DimLA1roo-2RukHT6Bk-112">
          <mxGeometry x="20" width="177" height="20" as="geometry">
            <mxRectangle width="177" height="20" as="alternateBounds" />
          </mxGeometry>
        </mxCell>
        <mxCell id="0DimLA1roo-2RukHT6Bk-115" style="shape=tableRow;horizontal=0;startSize=0;swimlaneHead=0;swimlaneBody=0;fillColor=none;collapsible=0;dropTarget=0;points=[[0,0.5],[1,0.5]];portConstraint=eastwest;top=0;left=0;right=0;bottom=0;" vertex="1" parent="0DimLA1roo-2RukHT6Bk-111">
          <mxGeometry y="45" width="197" height="20" as="geometry" />
        </mxCell>
        <mxCell id="0DimLA1roo-2RukHT6Bk-116" value="" style="shape=partialRectangle;connectable=0;fillColor=none;top=0;left=0;bottom=0;right=0;editable=1;overflow=hidden;whiteSpace=wrap;html=1;fontSize=10;" vertex="1" parent="0DimLA1roo-2RukHT6Bk-115">
          <mxGeometry width="20" height="20" as="geometry">
            <mxRectangle width="20" height="20" as="alternateBounds" />
          </mxGeometry>
        </mxCell>
        <mxCell id="0DimLA1roo-2RukHT6Bk-117" value="name" style="shape=partialRectangle;connectable=0;fillColor=none;top=0;left=0;bottom=0;right=0;align=left;spacingLeft=6;overflow=hidden;whiteSpace=wrap;html=1;" vertex="1" parent="0DimLA1roo-2RukHT6Bk-115">
          <mxGeometry x="20" width="177" height="20" as="geometry">
            <mxRectangle width="177" height="20" as="alternateBounds" />
          </mxGeometry>
        </mxCell>
        <mxCell id="0DimLA1roo-2RukHT6Bk-121" value="" style="shape=tableRow;horizontal=0;startSize=0;swimlaneHead=0;swimlaneBody=0;fillColor=none;collapsible=0;dropTarget=0;points=[[0,0.5],[1,0.5]];portConstraint=eastwest;top=0;left=0;right=0;bottom=0;" vertex="1" parent="0DimLA1roo-2RukHT6Bk-111">
          <mxGeometry y="65" width="197" height="25" as="geometry" />
        </mxCell>
        <mxCell id="0DimLA1roo-2RukHT6Bk-122" value="" style="shape=partialRectangle;connectable=0;fillColor=none;top=0;left=0;bottom=0;right=0;editable=1;overflow=hidden;whiteSpace=wrap;html=1;fontSize=10;" vertex="1" parent="0DimLA1roo-2RukHT6Bk-121">
          <mxGeometry width="20" height="25" as="geometry">
            <mxRectangle width="20" height="25" as="alternateBounds" />
          </mxGeometry>
        </mxCell>
        <mxCell id="0DimLA1roo-2RukHT6Bk-123" value="" style="shape=partialRectangle;connectable=0;fillColor=none;top=0;left=0;bottom=0;right=0;align=left;spacingLeft=6;overflow=hidden;whiteSpace=wrap;html=1;" vertex="1" parent="0DimLA1roo-2RukHT6Bk-121">
          <mxGeometry x="20" width="177" height="25" as="geometry">
            <mxRectangle width="177" height="25" as="alternateBounds" />
          </mxGeometry>
        </mxCell>
        <mxCell id="0DimLA1roo-2RukHT6Bk-124" value="" style="edgeStyle=entityRelationEdgeStyle;fontSize=12;html=1;endArrow=ERzeroToMany;endFill=1;rounded=0;entryX=1;entryY=0.5;entryDx=0;entryDy=0;exitX=1;exitY=0.5;exitDx=0;exitDy=0;" edge="1" parent="1" source="0DimLA1roo-2RukHT6Bk-112" target="0DimLA1roo-2RukHT6Bk-94">
          <mxGeometry width="100" height="100" relative="1" as="geometry">
            <mxPoint x="910" y="-530" as="sourcePoint" />
            <mxPoint x="1010" y="-630" as="targetPoint" />
          </mxGeometry>
        </mxCell>
      </root>
    </mxGraphModel>
  </diagram>
</mxfile>
